<svg width="12" height="145" viewBox="0 0 12 145" fill="none" xmlns="http://www.w3.org/2000/svg">
<path d="M9.5963 27.2709H2.39589V139.901H9.5963V27.2709Z" fill="url(#paint0_linear_8_4241)"/>
<path d="M9.59614 45.6491H2.39589V59.4194H9.59614V45.6491Z" fill="url(#paint1_linear_8_4241)"/>
<path d="M9.5963 134.484H2.39589V139.926H9.5963V134.484Z" fill="url(#paint2_linear_8_4241)"/>
<path d="M2.72951 141.774C2.71766 141.753 2.69911 141.699 2.69911 141.686V141.676H3.35291H4.00674L4.01156 141.698C4.02132 141.743 4.0212 141.753 4.01078 141.771L4.00087 141.788H3.37H2.73916L2.72962 141.771L2.72951 141.774Z" fill="#F7F7F7"/>
<path d="M4.19122 141.766C4.18011 141.744 4.16083 141.689 4.16083 141.679C4.16083 141.676 4.44116 141.676 4.83464 141.676H5.50845L5.50574 141.687C5.49942 141.714 5.48901 141.744 5.47824 141.765L5.46678 141.788H4.83523H4.20365L4.19127 141.763L4.19122 141.766Z" fill="#F7F7F7"/>
<path d="M5.62257 141.817C5.62257 141.817 5.62706 141.802 5.63253 141.788C5.64152 141.765 5.6517 141.727 5.65895 141.689L5.66165 141.676H5.99982C6.31825 141.676 6.33812 141.676 6.3401 141.683C6.34126 141.687 6.34358 141.699 6.34517 141.709C6.34671 141.72 6.35457 141.749 6.36252 141.773C6.37046 141.797 6.37695 141.818 6.37695 141.819C6.37695 141.819 6.20721 141.819 5.99977 141.819C5.79234 141.819 5.62262 141.819 5.62262 141.815L5.62257 141.817Z" fill="#F7F7F7"/>
<path d="M6.52235 141.766C6.51124 141.744 6.49196 141.689 6.49196 141.679C6.49196 141.676 6.77209 141.676 7.1653 141.676C7.66723 141.676 7.83864 141.676 7.83864 141.681C7.83864 141.691 7.82089 141.743 7.80971 141.765L7.79782 141.789H7.16626H6.53469L6.5223 141.764L6.52235 141.766Z" fill="#F7F7F7"/>
<path d="M7.99191 141.777C7.97891 141.756 7.97811 141.748 7.98536 141.713C7.98922 141.695 7.99207 141.679 7.99207 141.678C7.99207 141.678 8.28743 141.674 8.64844 141.674H9.30483L9.30212 141.686C9.29661 141.709 9.28257 141.748 9.27239 141.768L9.26193 141.789H8.63123H8.0005L7.99193 141.775L7.99191 141.777Z" fill="#F7F7F7"/>
<path d="M2.40831 139.889L9.57 139.901L9.57386 141.164L9.30472 141.839L2.68286 141.819L2.41391 141.143L2.40831 139.889Z" fill="url(#paint3_linear_8_4241)"/>
<path d="M4.05849 142.861C3.98435 142.677 3.88648 142.464 3.78887 142.272L3.75092 142.198L3.76662 142.168C3.79404 142.118 3.85704 142.007 3.89507 141.943L3.9086 141.921H3.98493C4.02689 141.921 4.11114 141.921 4.1721 141.921H4.28294L4.2976 141.945C4.33023 141.999 4.41409 142.147 4.43413 142.185L4.44099 142.198L4.42117 142.236C4.31475 142.441 4.2082 142.673 4.12253 142.886L4.10815 142.922H4.09565H4.08316L4.05855 142.861L4.05849 142.861Z" fill="#333333"/>
<path d="M7.84097 142.803C7.76683 142.619 7.66897 142.405 7.57136 142.214L7.5334 142.14L7.5491 142.11C7.57653 142.059 7.63953 141.949 7.67755 141.885L7.69109 141.863H7.76743C7.80939 141.863 7.89363 141.863 7.95459 141.863H8.06543L8.08008 141.887C8.11271 141.941 8.19658 142.089 8.21662 142.127L8.22348 142.14L8.20366 142.178C8.09723 142.383 7.99069 142.614 7.90503 142.828L7.89064 142.864H7.87815H7.86565L7.84103 142.803L7.84097 142.803Z" fill="#333333"/>
<path d="M5.57364 142.594C5.60435 142.534 5.66176 142.427 5.70117 142.356L5.77284 142.228L5.68842 142.078L5.604 141.929H5.45894C5.3352 141.929 5.3139 141.924 5.3139 141.913C5.3139 141.9 5.30193 141.898 5.25122 141.9C5.19191 141.904 5.18744 141.905 5.16789 141.939L5.14722 141.975L5.25583 142.184C5.31557 142.298 5.39598 142.462 5.43453 142.547C5.47311 142.633 5.50758 142.703 5.5112 142.703C5.51467 142.703 5.5429 142.654 5.57363 142.594L5.57364 142.594Z" fill="#333333"/>
<path d="M6.44855 142.586C6.41785 142.526 6.36043 142.419 6.32102 142.348L6.24934 142.22L6.33377 142.071L6.41818 141.921H6.56324C6.68698 141.921 6.70829 141.917 6.70829 141.905C6.70829 141.892 6.72025 141.89 6.77096 141.892C6.83027 141.897 6.83474 141.897 6.85429 141.931L6.87498 141.967L6.76635 142.176C6.70661 142.291 6.6262 142.454 6.58765 142.54C6.54907 142.625 6.5146 142.695 6.51098 142.695C6.50751 142.696 6.47928 142.646 6.44855 142.586V142.586Z" fill="#333333"/>
<path d="M5.09447 144.231C5.09447 144.226 5.12637 144.084 5.13088 144.068C5.19774 143.201 5.2671 143.381 5.54116 142.854C5.54116 142.828 5.72784 142.45 5.83144 142.267L5.88429 142.174V142.053V141.932H6.01377H6.14326V142.055V142.177L6.19875 142.275C6.25681 142.378 6.41711 142.693 6.45429 142.778L6.47593 142.827C6.81614 143.753 6.56024 142.94 6.91036 144.136C6.91927 144.176 6.92657 144.215 6.92657 144.222C6.92657 144.235 6.92502 144.235 6.01048 144.235C5.50663 144.235 5.09439 144.235 5.09439 144.231L5.09447 144.231Z" fill="#333333"/>
<path d="M2.40379 45.6668H9.59606" stroke="black" stroke-width="0.4"/>
<path d="M7.36192 141.866H6.9693" stroke="black" stroke-width="0.4"/>
<path d="M3.15475 143.916H5.04922" stroke="black" stroke-width="0.4"/>
<path d="M3.90567 141.866H4.29829" stroke="black" stroke-width="0.4"/>
<path d="M4.46817 142.184C4.41446 142.077 4.35782 141.97 4.29831 141.866" stroke="black" stroke-width="0.4"/>
<path d="M3.90568 141.866C3.84617 141.97 3.78953 142.077 3.73582 142.184" stroke="black" stroke-width="0.4"/>
<path d="M5.21016 141.866H5.50489" stroke="black" stroke-width="0.4"/>
<path d="M5.79199 142.224C5.73763 142.113 5.68019 142.003 5.61971 141.895" stroke="black" stroke-width="0.4"/>
<path d="M5.21019 141.866C5.1795 141.92 5.14958 141.974 5.12042 142.029" stroke="black" stroke-width="0.4"/>
<path d="M8.84518 143.916H6.95071" stroke="black" stroke-width="0.4"/>
<path d="M8.09423 141.866H7.70161" stroke="black" stroke-width="0.4"/>
<path d="M7.70164 141.866C7.64213 141.97 7.58549 142.077 7.53178 142.184" stroke="black" stroke-width="0.4"/>
<path d="M8.26413 142.184C8.21042 142.077 8.15378 141.97 8.09427 141.866" stroke="black" stroke-width="0.4"/>
<path d="M6.78976 141.866H6.49501" stroke="black" stroke-width="0.4"/>
<path d="M5.50491 141.866C5.56315 141.79 5.59271 141.697 5.58828 141.602" stroke="black" stroke-width="0.4"/>
<path d="M4.16374 141.866H5.50489" stroke="black" stroke-width="0.4"/>
<path d="M6.41169 141.602C6.40726 141.697 6.43679 141.79 6.49503 141.866" stroke="black" stroke-width="0.4"/>
<path d="M7.83618 141.866C7.89442 141.79 7.92398 141.697 7.91955 141.602" stroke="black" stroke-width="0.4"/>
<path d="M5.61971 141.895H6.38027" stroke="black" stroke-width="0.4"/>
<path d="M5.30833 141.866C5.31489 141.876 5.32191 141.886 5.32938 141.896" stroke="black" stroke-width="0.4"/>
<path d="M6.67055 141.895C6.67802 141.886 6.68504 141.876 6.69159 141.865" stroke="black" stroke-width="0.4"/>
<path d="M5.32938 141.895H6.67055" stroke="black" stroke-width="0.4"/>
<path d="M6.39945 141.895C6.33897 142.003 6.2815 142.113 6.22714 142.224" stroke="black" stroke-width="0.4"/>
<path d="M6.39945 141.895C6.33897 142.003 6.2815 142.113 6.22714 142.224" stroke="black" stroke-width="0.4"/>
<path d="M6.88914 142.011C6.86303 141.962 6.8363 141.914 6.80898 141.866" stroke="black" stroke-width="0.4"/>
<path d="M9.59608 27.2973V120.642" stroke="black" stroke-width="0.400938"/>
<path d="M5.13064 143.916C5.10522 144.022 5.08245 144.129 5.06232 144.237H6.95679C6.93665 144.129 6.91388 144.022 6.88846 143.916" stroke="black" stroke-width="0.4"/>
<path d="M5.48579 142.845C5.58264 142.619 5.69194 142.399 5.81322 142.186V141.895" stroke="black" stroke-width="0.4"/>
<path d="M6.20587 141.895V142.186C6.32286 142.392 6.42872 142.604 6.52299 142.821" stroke="black" stroke-width="0.4"/>
<path d="M4.10201 143.077C3.9643 142.657 3.78471 142.251 3.56597 141.866H3.17335C2.8113 142.503 2.55756 143.196 2.42244 143.916H4.31691" fill="#333333"/>
<path d="M4.10201 143.077C3.9643 142.657 3.78471 142.251 3.56597 141.866H3.17335C2.8113 142.503 2.55756 143.196 2.42244 143.916H4.31691" stroke="black" stroke-width="0.4"/>
<path d="M7.89796 141.751C7.91221 141.792 7.93309 141.831 7.95974 141.866H9.30089C9.35912 141.79 9.38868 141.697 9.38425 141.602" stroke="black" stroke-width="0.4"/>
<path d="M7.68307 143.916H9.57754C9.44243 143.196 9.18868 142.503 8.82663 141.866H8.43401C8.21527 142.251 8.03569 142.657 7.89797 143.077" fill="#333333"/>
<path d="M7.68307 143.916H9.57754C9.44243 143.196 9.18868 142.503 8.82663 141.866H8.43401C8.21527 142.251 8.03569 142.657 7.89797 143.077" stroke="black" stroke-width="0.4"/>
<path d="M4.63798 141.866C4.27593 142.503 4.02219 143.196 3.88707 143.916H5.78154C5.64642 143.196 5.39265 142.503 5.0306 141.866H4.63798Z" fill="#333333" stroke="black" stroke-width="0.4"/>
<path d="M2.40379 120.642V27.2973" stroke="black" stroke-width="0.400938"/>
<path d="M9.59606 137.814V141.02C9.58656 141.227 9.52142 141.428 9.40744 141.602H5.99994H2.59244C2.47846 141.428 2.41329 141.227 2.40379 141.02V137.814" stroke="black" stroke-width="0.4"/>
<path d="M7.36189 141.866C7.72395 142.503 7.97769 143.196 8.11281 143.916H6.21834C6.35346 143.196 6.60722 142.503 6.96927 141.866" fill="#333333"/>
<path d="M7.36189 141.866C7.72395 142.503 7.97769 143.196 8.11281 143.916H6.21834C6.35346 143.196 6.60722 142.503 6.96927 141.866" stroke="black" stroke-width="0.4"/>
<path d="M6.49501 141.866H7.83618" stroke="black" stroke-width="0.4"/>
<path d="M2.61573 141.602C2.6113 141.697 2.64086 141.79 2.69909 141.866H4.04024C4.0669 141.831 4.08777 141.792 4.10202 141.751" stroke="black" stroke-width="0.4"/>
<path d="M4.08036 141.602C4.07593 141.697 4.10549 141.79 4.16372 141.866" stroke="black" stroke-width="0.4"/>
<path d="M2.40379 59.4342H9.59606" stroke="black" stroke-width="0.4"/>
<path d="M6.54349 92.8349H5.05138L4.99609 92.8763V94.2036H5.40915V93.7059L5.44858 93.6705H6.54354C6.82001 93.6705 6.94962 93.5962 6.94962 93.4053V93.1005C6.94957 92.9094 6.82001 92.8349 6.54349 92.8349M6.54349 93.3257C6.54349 93.4156 6.484 93.4343 6.35439 93.4343H5.4531L5.4091 93.3915V93.1071L5.44852 93.0711H6.35439C6.484 93.0711 6.54349 93.0895 6.54349 93.1799V93.3257V93.3257Z" fill="#005288"/>
<path d="M5.67939 95.8538L6.03482 96.3746L6.01513 96.425H5.22909L5.02844 96.6718H6.19848L6.27957 96.7212L6.46122 96.9718H6.93392L5.89781 95.5858" fill="#005288"/>
<path d="M5.45863 102.77V102.401L5.50114 102.365H6.29192V102.13H5.0386V103.039H6.88737V102.806H5.503" fill="#005288"/>
<path d="M6.90689 101.67H5.0386V101.928H6.90689V101.67Z" fill="#005288"/>
<path d="M5.45244 98.8161H6.95758C6.9344 98.6247 6.81563 98.5716 6.51436 98.5716H5.43642C5.09647 98.5716 4.98804 98.638 4.98804 98.8952V99.617C4.98804 99.8745 5.09647 99.9409 5.43642 99.9409H6.51436C6.82004 99.9409 6.93709 99.8835 6.94508 99.685H5.45244L5.40817 99.6433V98.844" fill="#005288"/>
<path d="M6.52735 90.2144H5.43238L5.40014 90.1789V89.9447L5.43223 89.9199H6.90833L6.9285 89.8706C6.87822 89.7412 6.74802 89.6808 6.50625 89.6808H5.48087C5.14114 89.6808 5.03254 89.7472 5.03254 90.0045V90.1558C5.03254 90.4134 5.14114 90.4796 5.48087 90.4796H6.57339L6.60772 90.5097V90.7546L6.57975 90.7928H5.33006V90.7916H5.00273C5.00273 90.7916 4.96527 90.8104 4.9667 90.8192C4.99463 90.9991 5.11723 91.0501 5.41072 91.0501H6.52739C6.86707 91.0501 6.97892 90.9838 6.97892 90.7263V90.5377C6.97892 90.2806 6.86707 90.2144 6.52739 90.2144" fill="#005288"/>
<path d="M5.47329 104.844H4.85868L4.82532 104.908L5.50787 105.405C5.63717 105.33 5.77785 105.254 5.93088 105.18" fill="#005288"/>
<path d="M6.02396 105.781L6.62387 106.219H7.24598L7.27175 106.161L6.37595 105.505C6.25697 105.593 6.13944 105.685 6.02397 105.781" fill="#005288"/>
<path d="M5.38181 106.218H4.82573L4.77875 106.144C5.15684 105.779 6.88325 104.407 9.13039 104.233C9.13039 104.233 7.1647 104.451 5.38181 106.218" fill="#A7A9AC"/>
<path fill-rule="evenodd" clip-rule="evenodd" d="M4.96947 65.0876C5.08811 65.0241 5.20747 64.9622 5.33256 64.913C3.91666 64.168 3.83731 63.608 3.54652 63.0187C3.77045 63.7012 3.9575 64.3825 4.96947 65.0876V65.0876Z" fill="#A80126"/>
<path fill-rule="evenodd" clip-rule="evenodd" d="M4.23189 63.9693C4.77132 64.4204 5.23955 64.7418 5.58501 64.8396C5.92648 64.6574 7.05634 64.5584 7.03181 64.8154C6.7845 64.6935 6.63756 64.7513 6.49751 64.7964C6.56802 64.7954 6.7541 64.7748 6.81008 64.7945C6.78733 64.822 6.76259 64.8338 6.73708 64.8492C6.82849 64.8692 6.91482 64.8952 6.98671 64.9384C7.03329 64.9339 7.06375 64.9351 7.07799 64.9495C7.03045 64.962 6.97315 65.023 6.94508 65.0644C7.25907 65.0733 7.59342 65.0702 7.62858 65.4013C7.72756 65.108 7.55057 64.9556 7.20529 64.889C7.16004 64.7886 7.08711 64.7029 7.01632 64.6058C6.07273 64.5531 5.13023 64.489 4.23189 63.9693V63.9693Z" fill="#A80126"/>
<path fill-rule="evenodd" clip-rule="evenodd" d="M3.49152 66.2514V65.6801H3.87394C3.8588 65.6998 3.84599 65.7204 3.81365 65.7333H3.5742V65.8837H3.7878C3.7757 65.9018 3.76225 65.9187 3.73957 65.9262H3.5742V66.1298C3.55683 66.1762 3.53374 66.2192 3.49152 66.2514Z" fill="black"/>
<path fill-rule="evenodd" clip-rule="evenodd" d="M4.52339 65.7393V66.1572H4.63192V65.7637C4.48492 65.63 4.33792 65.63 4.19092 65.7637V66.1572H4.2891V65.9262H4.36663C4.38468 65.9169 4.39722 65.9057 4.40452 65.8928H4.29084V65.7409C4.37807 65.6809 4.4476 65.681 4.52339 65.7392V65.7393Z" fill="black"/>
<path fill-rule="evenodd" clip-rule="evenodd" d="M5.65663 66.1708H5.21587V65.6892H5.32611V66.1313H5.71369C5.69752 66.1462 5.68921 66.1658 5.65663 66.1708Z" fill="black"/>
<path fill-rule="evenodd" clip-rule="evenodd" d="M6.31527 65.6802V65.7748C6.13833 66.0148 6.43998 66.3029 6.77935 66.0917L6.80494 66.0864C6.59452 66.324 5.82365 66.1312 6.31529 65.6803L6.31527 65.6802Z" fill="black"/>
<path fill-rule="evenodd" clip-rule="evenodd" d="M6.08234 65.6926V65.867C6.25156 65.562 6.48619 65.4102 7.20472 65.6126C6.51553 65.3419 6.25974 65.4837 6.08234 65.6926Z" fill="black"/>
<path fill-rule="evenodd" clip-rule="evenodd" d="M7.42098 65.6425C7.27702 65.6447 7.13271 65.7408 7.13352 65.923C7.13514 66.2873 7.70827 66.3058 7.70844 65.923C7.70852 65.7316 7.56493 65.6401 7.42098 65.6425V65.6425ZM7.4197 65.6804C7.50507 65.6794 7.59083 65.7595 7.59154 65.923C7.59316 66.2499 7.25319 66.2425 7.25101 65.923C7.24972 65.7632 7.33432 65.6813 7.4197 65.6804Z" fill="black"/>
<path fill-rule="evenodd" clip-rule="evenodd" d="M8.2447 65.7404V66.1744H8.15907V65.7189L8.24507 65.6772L8.24442 65.697C8.37695 65.6941 8.46953 65.7546 8.49368 65.7881V66.1787H8.41021V65.795C8.37951 65.7439 8.34518 65.7311 8.24454 65.73L8.2447 65.7404Z" fill="black"/>
<path fill-rule="evenodd" clip-rule="evenodd" d="M5.99947 66.5099C5.11326 66.5139 5.34271 67.2246 5.83268 67.2105C6.0611 67.204 6.10432 67.1801 6.25724 67.0166C6.16166 67.4957 5.83629 67.4959 5.44477 67.534C5.39558 67.5663 5.3856 67.5731 5.3519 67.625C6.0167 67.6116 6.5743 67.4933 6.55797 66.9774C6.54655 66.6165 6.30498 66.5086 5.99947 66.5099V66.5099ZM5.98621 66.5958C6.02462 66.5958 6.06266 66.6017 6.09815 66.6133C6.13364 66.6248 6.16591 66.6418 6.19308 66.6631C6.22024 66.6845 6.24177 66.7098 6.25647 66.7378C6.27117 66.7657 6.27873 66.7956 6.27872 66.8258C6.27853 66.8867 6.24762 66.945 6.19278 66.988C6.13794 67.031 6.06364 67.0552 5.98621 67.0551C5.90888 67.055 5.83475 67.0308 5.78005 66.9879C5.72534 66.9449 5.69452 66.8866 5.69432 66.8258C5.69431 66.7649 5.72504 66.7064 5.77977 66.6633C5.8345 66.6202 5.90874 66.5959 5.98621 66.5958Z" fill="black"/>
<path fill-rule="evenodd" clip-rule="evenodd" d="M9.59222 59.5686L10.0866 60.421V68.6374L9.88201 69.9671V138.01L9.50763 139.432V126.511L9.31477 125.884V124.775L9.49645 124.097V117.953L9.28377 117.159V115.566L9.45942 114.746V72.2928L9.29067 71.3526V59.5881L9.59222 59.5686Z" fill="#101010" stroke="black" stroke-width="0.4" stroke-linecap="round" stroke-linejoin="round"/>
<path d="M2.40379 139.909H9.59606" stroke="black" stroke-width="0.4"/>
<path d="M2.40379 134.509H9.59606" stroke="black" stroke-width="0.4"/>
<path d="M2.36725 140.061H2.18343V140.236H2.36725V140.061Z" fill="#101010"/>
<path d="M3.31049 118.994L3.28789 118.995L3.26456 118.999L3.24118 119.005L3.21785 119.013L3.19449 119.025L3.17039 119.037L3.14628 119.053L3.12217 119.071L3.09731 119.092L3.07243 119.115L3.04681 119.141L3.0212 119.17L2.99481 119.202L2.96771 119.238L2.94132 119.276L2.91342 119.318L2.88554 119.364L2.85692 119.413L2.82829 119.466L2.79891 119.522L2.76953 119.581L2.74012 119.642L2.71074 119.704L2.68211 119.768L2.65349 119.834L2.62561 119.899L2.59849 119.966L2.57137 120.033L2.54576 120.099L2.52165 120.164L2.49832 120.229L2.47649 120.294L2.45538 120.358L2.43579 120.422L2.41846 120.486L2.40189 120.55L2.3868 120.615L2.37324 120.68L2.36342 120.736L2.35814 120.75L2.34684 120.779L2.33632 120.809L2.31598 120.867L2.29717 120.922L2.27907 120.978L2.26327 121.032L2.24745 121.086L2.23236 121.139L2.21804 121.191L2.20448 121.243L2.19095 121.296L2.17814 121.349L2.16608 121.404L2.15405 121.459L2.14202 121.517L2.13675 121.546L2.13072 121.575L2.1247 121.606L2.11942 121.637L2.1134 121.67L2.10812 121.702L2.1021 121.735L2.09682 121.769L2.09153 121.805L2.08552 121.84L2.08319 121.859L2.08244 121.863L2.08166 121.866V121.866V121.867V121.868V121.869L2.08088 121.881L2.07561 122.054L2.05226 122.75L1.95884 125.532L1.77351 131.097L1.58743 136.661L1.49479 139.443L1.49324 139.486L1.49246 139.508V139.512L1.49324 139.517L1.49479 139.525L1.49863 139.544L1.50543 139.579L1.51372 139.615L1.52201 139.651L1.53105 139.688L1.54157 139.724L1.5521 139.76L1.5649 139.797L1.57771 139.832L1.5928 139.867L1.60937 139.903L1.6267 139.938L1.64629 139.974L1.66738 140.009L1.69074 140.043L1.7156 140.077L1.74272 140.111L1.75703 140.127L1.77212 140.144L1.78792 140.159L1.80374 140.176L1.82034 140.192L1.83764 140.208L1.85575 140.224L1.87456 140.24L1.89414 140.255L1.91376 140.271L1.93407 140.286L1.95592 140.301L1.97774 140.316L2.00035 140.331L2.02368 140.345L2.04856 140.36L2.07344 140.375L2.08625 140.381H2.09226H2.09906H2.10506H2.10815H2.11123L2.11431 140.377L2.11818 140.373L2.12126 140.369L2.12434 140.364L2.12745 140.359L2.12976 140.352H2.13054L2.13129 140.348L2.13207 140.342L2.13362 140.33L2.13889 140.281L2.15092 140.181L2.16222 140.081L2.17352 139.98L2.18482 139.878L2.19615 139.775L2.20745 139.672L2.21875 139.568L2.23005 139.462L2.24135 139.357L2.25265 139.251L2.27525 139.038L2.29785 138.822L2.32045 138.606L2.34305 138.389L2.38976 137.954L2.41236 137.738L2.43647 137.523L2.45983 137.309L2.47186 137.203L2.48389 137.097L2.49592 136.992L2.50872 136.888L2.52075 136.784L2.53278 136.681L2.54559 136.579L2.5584 136.478L2.5712 136.378L2.58401 136.279L2.59682 136.18L2.60963 136.084L2.62321 135.987L2.63602 135.893L2.6496 135.8L2.66314 135.707L2.67743 135.617L2.69101 135.527L2.7046 135.44L2.71891 135.353L2.73322 135.269L2.74751 135.186L2.76562 135.131L2.79573 135.071L2.83794 135.009L2.8899 134.947L2.9517 134.888L3.02176 134.835L3.09783 134.792L3.18072 134.759L3.26736 134.742H3.35774L3.45042 134.762L3.54382 134.805L3.69976 135.213L3.86324 135.663L4.02597 136.112L4.18945 136.562L4.3522 137.012L4.51568 137.462L4.67838 137.911L4.84188 138.361L5.00459 138.812L5.16806 139.261L5.33081 139.711L5.49429 140.161L5.53573 140.27L5.54324 140.284L5.55153 140.296L5.56057 140.307L5.57036 140.319L5.58088 140.328L5.59145 140.337L5.60198 140.346L5.61401 140.353L5.62533 140.359L5.63736 140.365L5.64939 140.371L5.6622 140.375L5.67501 140.378L5.68708 140.382H5.69989H5.71192H5.72473H5.73603H5.74806H5.75858H5.76915H5.77968H5.78872H5.80378L5.82412 140.373L5.84444 140.354L5.86405 140.325L5.88286 140.289L5.90097 140.245L5.91754 140.196L5.93336 140.142L5.94768 140.084L5.96048 140.023L5.97178 139.96L5.9808 139.897L5.90697 139.194L5.7337 137.722L5.56042 136.251L5.38715 134.779L5.21388 133.308L5.04136 131.836L4.86809 130.364L4.69481 128.892L4.52154 127.421L4.34902 125.949L4.17575 124.477L4.00247 123.005L3.88947 122.009L3.88794 121.912L3.88716 121.815L3.88639 121.719L3.88561 121.622L3.88486 121.525L3.88408 121.429L3.8833 121.331L3.88252 121.235L3.88175 121.139L3.88099 121.041L3.88022 120.945L3.87636 120.824L3.86277 120.635L3.84846 120.465L3.83417 120.311L3.81985 120.172L3.80403 120.047L3.78894 119.935L3.77315 119.834L3.75733 119.745L3.74073 119.664L3.72415 119.592L3.70683 119.526L3.68952 119.465L3.6722 119.41L3.65411 119.358L3.63679 119.312L3.61795 119.269L3.59987 119.23L3.58104 119.194L3.56145 119.162L3.54264 119.133L3.5223 119.107L3.50271 119.085L3.48237 119.065L3.46205 119.047L3.44096 119.032L3.41987 119.02L3.39875 119.01L3.37692 119.002L3.3551 118.997L3.33325 118.994L3.31049 118.994Z" fill="url(#paint4_linear_8_4241)"/>
<path fill-rule="evenodd" clip-rule="evenodd" d="M2.12475 140.379L2.38993 137.956L2.45622 137.196L2.69127 135.412L2.72741 135.165L2.854 134.96L3.01673 134.816L3.17945 134.743L3.3482 134.725L3.46272 134.743L3.56517 134.822L5.52994 140.27L5.64445 140.373L5.77704 140.396L5.77101 140.306L2.80578 132.333L2.66114 132.17L2.50444 132.068L2.34171 132.11L2.27542 132.309L1.65465 139.987L1.80532 140.18L1.95599 140.318L2.12475 140.379Z" fill="url(#paint5_linear_8_4241)"/>
<path d="M3.88133 120.866L3.40532 120.361" stroke="black" stroke-width="0.4"/>
<path d="M3.40533 120.361L2.46791 120.364" stroke="black" stroke-width="0.4"/>
<path d="M2.43349 132.074L2.5008 122.77" stroke="black" stroke-width="0.4"/>
<path d="M2.50082 122.77L3.33418 121.642" stroke="black" stroke-width="0.4"/>
<path d="M2.50083 122.77L2.10268 121.739" stroke="black" stroke-width="0.4"/>
<path d="M3.33414 121.642L3.40531 120.361" stroke="black" stroke-width="0.4" stroke-linecap="round"/>
<path d="M2.16708 140.031H2.40383" stroke="black" stroke-width="0.4"/>
<path d="M2.13817 140.284H2.40387" stroke="black" stroke-width="0.4"/>
<path d="M1.65857 139.994L1.70424 139.415L1.74991 138.835L1.79559 138.256L1.84126 137.677L1.88693 137.098L1.9326 136.518L1.97828 135.939L2.02395 135.36L2.06962 134.78L2.11529 134.201L2.16097 133.622L2.20664 133.043L2.25231 132.463L2.27152 132.28L2.28424 132.234L2.29937 132.194L2.31665 132.161L2.33584 132.134L2.35668 132.112L2.37895 132.095L2.4023 132.083L2.42657 132.076L2.45146 132.072H2.47672L2.50205 132.076L2.52729 132.083L2.55213 132.092L2.57642 132.105L2.60015 132.119L2.6233 132.136L2.64583 132.154L2.66772 132.174L2.68898 132.195L2.70953 132.218L2.72935 132.241L2.74845 132.265L2.76681 132.289L2.78437 132.314L2.80116 132.338L2.86939 132.508L3.09419 133.113L3.319 133.719L3.54383 134.324L3.76864 134.929L3.99345 135.535L4.21828 136.14L4.44309 136.745L4.66789 137.351L4.89273 137.956L5.11753 138.561L5.34236 139.167L5.56717 139.772L5.79198 140.377" stroke="black" stroke-width="0.4"/>
<path d="M3.31049 118.994L3.28789 118.995L3.26456 118.999L3.24118 119.005L3.21785 119.013L3.19449 119.025L3.17039 119.037L3.14628 119.053L3.12217 119.071L3.09731 119.092L3.07243 119.115L3.04681 119.141L3.0212 119.17L2.99481 119.202L2.96771 119.238L2.94132 119.276L2.91342 119.318L2.88554 119.364L2.85692 119.413L2.82829 119.466L2.79891 119.522L2.76953 119.581L2.74012 119.642L2.71074 119.704L2.68211 119.768L2.65349 119.834L2.62561 119.899L2.59849 119.966L2.57137 120.033L2.54576 120.099L2.52165 120.164L2.49832 120.229L2.47649 120.294L2.45538 120.358L2.43579 120.422L2.41846 120.486L2.40189 120.55L2.3868 120.615L2.37324 120.68L2.36342 120.736L2.35814 120.75L2.34684 120.779L2.33632 120.809L2.31598 120.867L2.29717 120.922L2.27907 120.978L2.26327 121.032L2.24745 121.086L2.23236 121.139L2.21804 121.191L2.20448 121.243L2.19095 121.296L2.17814 121.349L2.16608 121.404L2.15405 121.459L2.14202 121.517L2.13675 121.546L2.13072 121.575L2.1247 121.606L2.11942 121.637L2.1134 121.67L2.10812 121.702L2.1021 121.735L2.09682 121.769L2.09153 121.805L2.08552 121.84L2.08319 121.859L2.08244 121.863L2.08166 121.866V121.866V121.867V121.868V121.869L2.08088 121.881L2.07561 122.054L2.05226 122.75L1.95884 125.532L1.77351 131.097L1.58743 136.661L1.49479 139.443L1.49324 139.486L1.49246 139.508V139.512L1.49324 139.517L1.49479 139.525L1.49863 139.544L1.50543 139.579L1.51372 139.615L1.52201 139.651L1.53105 139.688L1.54157 139.724L1.5521 139.76L1.5649 139.797L1.57771 139.832L1.5928 139.867L1.60937 139.903L1.6267 139.938L1.64629 139.974L1.66738 140.009L1.69074 140.043L1.7156 140.077L1.74272 140.111L1.75703 140.127L1.77212 140.144L1.78792 140.159L1.80374 140.176L1.82034 140.192L1.83764 140.208L1.85575 140.224L1.87456 140.24L1.89414 140.255L1.91376 140.271L1.93407 140.286L1.95592 140.301L1.97774 140.316L2.00035 140.331L2.02368 140.345L2.04856 140.36L2.07344 140.375L2.08625 140.381H2.09226H2.09906H2.10506H2.10815H2.11123L2.11431 140.377L2.11818 140.373L2.12126 140.369L2.12434 140.364L2.12745 140.359L2.12976 140.352H2.13054L2.13129 140.348L2.13207 140.342L2.13362 140.33L2.13889 140.281L2.15092 140.181L2.16222 140.081L2.17352 139.98L2.18482 139.878L2.19615 139.775L2.20745 139.672L2.21875 139.568L2.23005 139.462L2.24135 139.357L2.25265 139.251L2.27525 139.038L2.29785 138.822L2.32045 138.606L2.34305 138.389L2.38976 137.954L2.41236 137.738L2.43647 137.523L2.45983 137.309L2.47186 137.203L2.48389 137.097L2.49592 136.992L2.50872 136.888L2.52075 136.784L2.53278 136.681L2.54559 136.579L2.5584 136.478L2.5712 136.378L2.58401 136.279L2.59682 136.18L2.60963 136.084L2.62321 135.987L2.63602 135.893L2.6496 135.8L2.66314 135.707L2.67743 135.617L2.69101 135.527L2.7046 135.44L2.71891 135.353L2.73322 135.269L2.74751 135.186L2.76562 135.131L2.79573 135.071L2.83794 135.009L2.8899 134.947L2.9517 134.888L3.02176 134.835L3.09783 134.792L3.18072 134.759L3.26736 134.742H3.35774L3.45042 134.762L3.54382 134.805L3.69976 135.213L3.86324 135.663L4.02597 136.112L4.18945 136.562L4.3522 137.012L4.51568 137.462L4.67838 137.911L4.84188 138.361L5.00459 138.812L5.16806 139.261L5.33081 139.711L5.49429 140.161L5.53573 140.27L5.54324 140.284L5.55153 140.296L5.56057 140.307L5.57036 140.319L5.58088 140.328L5.59145 140.337L5.60198 140.346L5.61401 140.353L5.62533 140.359L5.63736 140.365L5.64939 140.371L5.6622 140.375L5.67501 140.378L5.68708 140.382H5.69989H5.71192H5.72473H5.73603H5.74806H5.75858H5.76915H5.77968H5.78872H5.80378L5.82412 140.373L5.84444 140.354L5.86405 140.325L5.88286 140.289L5.90097 140.245L5.91754 140.196L5.93336 140.142L5.94768 140.084L5.96048 140.023L5.97178 139.96L5.9808 139.897L5.90697 139.194L5.7337 137.722L5.56042 136.251L5.38715 134.779L5.21388 133.308L5.04136 131.836L4.86809 130.364L4.69481 128.892L4.52154 127.421L4.34902 125.949L4.17575 124.477L4.00247 123.005L3.88947 122.009L3.88794 121.912L3.88716 121.815L3.88639 121.719L3.88561 121.622L3.88486 121.525L3.88408 121.429L3.8833 121.331L3.88252 121.235L3.88175 121.139L3.88099 121.041L3.88022 120.945L3.87636 120.824L3.86277 120.635L3.84846 120.465L3.83417 120.311L3.81985 120.172L3.80403 120.047L3.78894 119.935L3.77315 119.834L3.75733 119.745L3.74073 119.664L3.72415 119.592L3.70683 119.526L3.68952 119.465L3.6722 119.41L3.65411 119.358L3.63679 119.312L3.61795 119.269L3.59987 119.23L3.58104 119.194L3.56145 119.162L3.54264 119.133L3.5223 119.107L3.50271 119.085L3.48237 119.065L3.46205 119.047L3.44096 119.032L3.41987 119.02L3.39875 119.01L3.37692 119.002L3.3551 118.997L3.33325 118.994L3.31049 118.994Z" stroke="black" stroke-width="0.4"/>
<path d="M9.63297 140.061H9.81679V140.236H9.63297V140.061Z" fill="#101010"/>
<path d="M8.68968 118.994L8.71228 118.995L8.73561 118.999L8.75899 119.005L8.78232 119.013L8.80567 119.025L8.82978 119.037L8.85389 119.053L8.878 119.071L8.90286 119.092L8.92774 119.115L8.95336 119.141L8.97897 119.17L9.00536 119.202L9.03246 119.238L9.05885 119.276L9.08675 119.318L9.11462 119.364L9.14325 119.413L9.17188 119.466L9.20126 119.522L9.23064 119.581L9.26005 119.642L9.28943 119.704L9.31805 119.768L9.34668 119.834L9.37456 119.899L9.40168 119.966L9.4288 120.033L9.45441 120.099L9.47852 120.164L9.50185 120.229L9.52367 120.294L9.54479 120.358L9.56438 120.422L9.58171 120.486L9.59828 120.55L9.61337 120.615L9.62693 120.68L9.63675 120.736L9.64202 120.75L9.65332 120.779L9.66385 120.809L9.68419 120.867L9.703 120.922L9.7211 120.978L9.7369 121.032L9.75272 121.086L9.76781 121.139L9.78212 121.191L9.79569 121.243L9.80922 121.296L9.82203 121.349L9.83408 121.404L9.84611 121.459L9.85814 121.517L9.86342 121.546L9.86944 121.575L9.87547 121.606L9.88074 121.637L9.88677 121.67L9.89204 121.702L9.89807 121.735L9.90335 121.769L9.90864 121.805L9.91465 121.84L9.91698 121.859L9.91773 121.863L9.91851 121.866V121.866V121.867V121.868V121.869L9.91928 121.881L9.92456 122.054L9.94791 122.75L10.0413 125.532L10.2267 131.097L10.4127 136.661L10.5054 139.443L10.5069 139.486L10.5077 139.508V139.512L10.5069 139.517L10.5054 139.525L10.5015 139.544L10.4947 139.579L10.4864 139.615L10.4782 139.651L10.4691 139.688L10.4586 139.724L10.4481 139.76L10.4353 139.797L10.4225 139.832L10.4074 139.867L10.3908 139.903L10.3735 139.938L10.3539 139.974L10.3328 140.009L10.3094 140.043L10.2846 140.077L10.2574 140.111L10.2431 140.127L10.228 140.144L10.2122 140.159L10.1964 140.176L10.1798 140.192L10.1625 140.208L10.1444 140.224L10.1256 140.24L10.106 140.255L10.0864 140.271L10.0661 140.286L10.0442 140.301L10.0224 140.316L9.99982 140.331L9.97649 140.345L9.95161 140.36L9.92672 140.375L9.91392 140.381H9.90791H9.90111H9.89511H9.89202H9.88894L9.88585 140.377L9.88199 140.373L9.87891 140.369L9.87582 140.364L9.87272 140.359L9.87041 140.352H9.86963L9.86888 140.348L9.8681 140.342L9.86655 140.33L9.86127 140.281L9.84924 140.181L9.83794 140.081L9.82664 139.98L9.81534 139.878L9.80402 139.775L9.79272 139.672L9.78142 139.568L9.77012 139.462L9.75882 139.357L9.74752 139.251L9.72492 139.038L9.70232 138.822L9.67971 138.606L9.65711 138.389L9.61041 137.954L9.5878 137.738L9.5637 137.523L9.54034 137.309L9.52831 137.203L9.51628 137.097L9.50425 136.992L9.49144 136.888L9.47941 136.784L9.46738 136.681L9.45458 136.579L9.44177 136.478L9.42896 136.378L9.41616 136.279L9.40335 136.18L9.39054 136.084L9.37696 135.987L9.36415 135.893L9.35057 135.8L9.33703 135.707L9.32274 135.617L9.30915 135.527L9.29557 135.44L9.28126 135.353L9.26694 135.269L9.25265 135.186L9.23455 135.131L9.20444 135.071L9.16223 135.009L9.11027 134.947L9.04847 134.888L8.97841 134.835L8.90234 134.792L8.81945 134.759L8.73281 134.742H8.64243L8.54974 134.762L8.45635 134.805L8.3004 135.213L8.13692 135.663L7.9742 136.112L7.81072 136.562L7.64797 137.012L7.48449 137.462L7.32179 137.911L7.15829 138.361L6.99558 138.812L6.8321 139.261L6.66935 139.711L6.50587 140.161L6.46444 140.27L6.45693 140.284L6.44864 140.296L6.4396 140.307L6.42981 140.319L6.41928 140.328L6.40871 140.337L6.39819 140.346L6.38616 140.353L6.37484 140.359L6.36281 140.365L6.35078 140.371L6.33797 140.375L6.32516 140.378L6.31308 140.382H6.30028H6.28825H6.27544H6.26414H6.25211H6.24159H6.23102H6.22049H6.21145H6.19638L6.17604 140.373L6.15573 140.354L6.13612 140.325L6.1173 140.289L6.0992 140.245L6.08263 140.196L6.06681 140.142L6.05249 140.084L6.03968 140.023L6.02838 139.96L6.01937 139.897L6.0932 139.194L6.26647 137.722L6.43974 136.251L6.61302 134.779L6.78629 133.308L6.95881 131.836L7.13208 130.364L7.30536 128.892L7.47863 127.421L7.65115 125.949L7.82442 124.477L7.99769 123.005L8.1107 122.009L8.11223 121.912L8.11301 121.815L8.11378 121.719L8.11456 121.622L8.11531 121.525L8.11609 121.429L8.11687 121.331L8.11764 121.235L8.11842 121.139L8.11917 121.041L8.11995 120.945L8.12381 120.824L8.1374 120.635L8.15171 120.465L8.166 120.311L8.18031 120.172L8.19613 120.047L8.21123 119.935L8.22702 119.834L8.24284 119.745L8.25944 119.664L8.27601 119.592L8.29334 119.526L8.31065 119.465L8.32797 119.41L8.34605 119.358L8.36338 119.312L8.38221 119.269L8.4003 119.23L8.41913 119.194L8.43872 119.162L8.45753 119.133L8.47787 119.107L8.49746 119.085L8.5178 119.065L8.53811 119.047L8.55921 119.032L8.5803 119.02L8.60142 119.01L8.62324 119.002L8.64507 118.997L8.66691 118.994L8.68968 118.994Z" fill="url(#paint6_linear_8_4241)"/>
<path fill-rule="evenodd" clip-rule="evenodd" d="M9.87545 140.379L9.61027 137.956L9.54397 137.196L9.30893 135.412L9.27279 135.165L9.1462 134.96L8.98347 134.816L8.82075 134.743L8.65199 134.725L8.53748 134.743L8.43503 134.822L6.47026 140.27L6.35575 140.373L6.22316 140.396L6.22918 140.306L9.19441 132.333L9.33906 132.17L9.49576 132.068L9.65849 132.11L9.72478 132.309L10.3456 139.987L10.1949 140.18L10.0442 140.318L9.87545 140.379Z" fill="url(#paint7_linear_8_4241)"/>
<path d="M8.11887 120.866L8.59488 120.361" stroke="black" stroke-width="0.4"/>
<path d="M8.59489 120.361L9.5323 120.364" stroke="black" stroke-width="0.4"/>
<path d="M9.56673 132.074L9.49942 122.77" stroke="black" stroke-width="0.4"/>
<path d="M9.49944 122.77L8.66608 121.642" stroke="black" stroke-width="0.4"/>
<path d="M9.49943 122.77L9.89758 121.739" stroke="black" stroke-width="0.4"/>
<path d="M8.66603 121.642L8.59486 120.361" stroke="black" stroke-width="0.4" stroke-linecap="round"/>
<path d="M9.83308 140.031H9.59634" stroke="black" stroke-width="0.4"/>
<path d="M9.86209 140.284H9.59639" stroke="black" stroke-width="0.4"/>
<path d="M10.3416 139.994L10.2959 139.415L10.2503 138.835L10.2046 138.256L10.1589 137.677L10.1132 137.098L10.0676 136.518L10.0219 135.939L9.97622 135.36L9.93055 134.78L9.88487 134.201L9.8392 133.622L9.79353 133.043L9.74786 132.463L9.72864 132.28L9.71593 132.234L9.70079 132.194L9.68351 132.161L9.66433 132.134L9.64349 132.112L9.62122 132.095L9.59787 132.083L9.57359 132.076L9.54871 132.072H9.52345L9.49812 132.076L9.47288 132.083L9.44804 132.092L9.42375 132.105L9.40001 132.119L9.37687 132.136L9.35434 132.154L9.33245 132.174L9.31119 132.195L9.29064 132.218L9.27081 132.241L9.25172 132.265L9.23336 132.289L9.21579 132.314L9.19901 132.338L9.13078 132.508L8.90597 133.113L8.68117 133.719L8.45634 134.324L8.23153 134.929L8.00672 135.535L7.78189 136.14L7.55708 136.745L7.33227 137.351L7.10744 137.956L6.88263 138.561L6.6578 139.167L6.433 139.772L6.20819 140.377" stroke="black" stroke-width="0.4"/>
<path d="M8.68968 118.994L8.71228 118.995L8.73561 118.999L8.75899 119.005L8.78232 119.013L8.80567 119.025L8.82978 119.037L8.85389 119.053L8.878 119.071L8.90286 119.092L8.92774 119.115L8.95336 119.141L8.97897 119.17L9.00536 119.202L9.03246 119.238L9.05885 119.276L9.08675 119.318L9.11462 119.364L9.14325 119.413L9.17188 119.466L9.20126 119.522L9.23064 119.581L9.26005 119.642L9.28943 119.704L9.31805 119.768L9.34668 119.834L9.37456 119.899L9.40168 119.966L9.4288 120.033L9.45441 120.099L9.47852 120.164L9.50185 120.229L9.52367 120.294L9.54479 120.358L9.56438 120.422L9.58171 120.486L9.59828 120.55L9.61337 120.615L9.62693 120.68L9.63675 120.736L9.64202 120.75L9.65332 120.779L9.66385 120.809L9.68419 120.867L9.703 120.922L9.7211 120.978L9.7369 121.032L9.75272 121.086L9.76781 121.139L9.78212 121.191L9.79569 121.243L9.80922 121.296L9.82203 121.349L9.83408 121.404L9.84611 121.459L9.85814 121.517L9.86342 121.546L9.86944 121.575L9.87547 121.606L9.88074 121.637L9.88677 121.67L9.89204 121.702L9.89807 121.735L9.90335 121.769L9.90864 121.805L9.91465 121.84L9.91698 121.859L9.91773 121.863L9.91851 121.866V121.866V121.867V121.868V121.869L9.91928 121.881L9.92456 122.054L9.94791 122.75L10.0413 125.532L10.2267 131.097L10.4127 136.661L10.5054 139.443L10.5069 139.486L10.5077 139.508V139.512L10.5069 139.517L10.5054 139.525L10.5015 139.544L10.4947 139.579L10.4864 139.615L10.4782 139.651L10.4691 139.688L10.4586 139.724L10.4481 139.76L10.4353 139.797L10.4225 139.832L10.4074 139.867L10.3908 139.903L10.3735 139.938L10.3539 139.974L10.3328 140.009L10.3094 140.043L10.2846 140.077L10.2574 140.111L10.2431 140.127L10.228 140.144L10.2122 140.159L10.1964 140.176L10.1798 140.192L10.1625 140.208L10.1444 140.224L10.1256 140.24L10.106 140.255L10.0864 140.271L10.0661 140.286L10.0442 140.301L10.0224 140.316L9.99982 140.331L9.97649 140.345L9.95161 140.36L9.92672 140.375L9.91392 140.381H9.90791H9.90111H9.89511H9.89202H9.88894L9.88585 140.377L9.88199 140.373L9.87891 140.369L9.87582 140.364L9.87272 140.359L9.87041 140.352H9.86963L9.86888 140.348L9.8681 140.342L9.86655 140.33L9.86127 140.281L9.84924 140.181L9.83794 140.081L9.82664 139.98L9.81534 139.878L9.80402 139.775L9.79272 139.672L9.78142 139.568L9.77012 139.462L9.75882 139.357L9.74752 139.251L9.72492 139.038L9.70232 138.822L9.67971 138.606L9.65711 138.389L9.61041 137.954L9.5878 137.738L9.5637 137.523L9.54034 137.309L9.52831 137.203L9.51628 137.097L9.50425 136.992L9.49144 136.888L9.47941 136.784L9.46738 136.681L9.45458 136.579L9.44177 136.478L9.42896 136.378L9.41616 136.279L9.40335 136.18L9.39054 136.084L9.37696 135.987L9.36415 135.893L9.35057 135.8L9.33703 135.707L9.32274 135.617L9.30915 135.527L9.29557 135.44L9.28126 135.353L9.26694 135.269L9.25265 135.186L9.23455 135.131L9.20444 135.071L9.16223 135.009L9.11027 134.947L9.04847 134.888L8.97841 134.835L8.90234 134.792L8.81945 134.759L8.73281 134.742H8.64243L8.54974 134.762L8.45635 134.805L8.3004 135.213L8.13692 135.663L7.9742 136.112L7.81072 136.562L7.64797 137.012L7.48449 137.462L7.32179 137.911L7.15829 138.361L6.99558 138.812L6.8321 139.261L6.66935 139.711L6.50587 140.161L6.46444 140.27L6.45693 140.284L6.44864 140.296L6.4396 140.307L6.42981 140.319L6.41928 140.328L6.40871 140.337L6.39819 140.346L6.38616 140.353L6.37484 140.359L6.36281 140.365L6.35078 140.371L6.33797 140.375L6.32516 140.378L6.31308 140.382H6.30028H6.28825H6.27544H6.26414H6.25211H6.24159H6.23102H6.22049H6.21145H6.19638L6.17604 140.373L6.15573 140.354L6.13612 140.325L6.1173 140.289L6.0992 140.245L6.08263 140.196L6.06681 140.142L6.05249 140.084L6.03968 140.023L6.02838 139.96L6.01937 139.897L6.0932 139.194L6.26647 137.722L6.43974 136.251L6.61302 134.779L6.78629 133.308L6.95881 131.836L7.13208 130.364L7.30536 128.892L7.47863 127.421L7.65115 125.949L7.82442 124.477L7.99769 123.005L8.1107 122.009L8.11223 121.912L8.11301 121.815L8.11378 121.719L8.11456 121.622L8.11531 121.525L8.11609 121.429L8.11687 121.331L8.11764 121.235L8.11842 121.139L8.11917 121.041L8.11995 120.945L8.12381 120.824L8.1374 120.635L8.15171 120.465L8.166 120.311L8.18031 120.172L8.19613 120.047L8.21123 119.935L8.22702 119.834L8.24284 119.745L8.25944 119.664L8.27601 119.592L8.29334 119.526L8.31065 119.465L8.32797 119.41L8.34605 119.358L8.36338 119.312L8.38221 119.269L8.4003 119.23L8.41913 119.194L8.43872 119.162L8.45753 119.133L8.47787 119.107L8.49746 119.085L8.5178 119.065L8.53811 119.047L8.55921 119.032L8.5803 119.02L8.60142 119.01L8.62324 119.002L8.64507 118.997L8.66691 118.994L8.68968 118.994Z" stroke="black" stroke-width="0.4"/>
<path d="M1.07289 24.438C1.04785 24.0536 1.03918 20.64 1.05357 16.8523C1.08207 9.36772 1.07763 9.46224 1.48728 7.54806C1.95474 5.36361 2.84684 3.64688 4.35527 2.02897C4.95212 1.3888 5.42999 1.06935 5.79311 1.06777L5.94652 1.067V13.1019V25.1368H3.53247H1.11841L1.07288 24.4379L1.07289 24.438Z" fill="url(#paint8_linear_8_4241)"/>
<path d="M2.4194 27.6428C2.38291 27.5959 2.12944 27.1433 1.85612 26.637C1.5828 26.1307 1.29954 25.6168 1.22667 25.4949L1.09416 25.2733H3.52034H5.94652V26.5006V27.728H4.21611C2.91262 27.728 2.46935 27.707 2.4194 27.6428V27.6428Z" fill="url(#paint9_linear_8_4241)"/>
<path d="M10.9462 24.438C10.9712 24.0536 10.9799 20.64 10.9655 16.8523C10.937 9.3677 10.9414 9.46223 10.5318 7.54804C10.0643 5.36359 9.17223 3.64687 7.6638 2.02896C7.06695 1.38879 6.58908 1.06933 6.22597 1.06776L6.07255 1.06699V13.1019V25.1368H8.48661H10.9007L10.9462 24.4379L10.9462 24.438Z" fill="url(#paint10_linear_8_4241)"/>
<path d="M9.59962 27.6427C9.63611 27.5959 9.88957 27.1433 10.1629 26.637C10.4362 26.1307 10.7195 25.6168 10.7923 25.4949L10.9249 25.2733H8.49867H6.07249V26.5006V27.728H7.8029C9.1064 27.728 9.54966 27.707 9.59962 27.6427V27.6427Z" fill="url(#paint11_linear_8_4241)"/>
<path d="M2.40384 27.7727H9.5961" stroke="black" stroke-width="0.4"/>
<path d="M1 25.1979H11" stroke="black" stroke-width="0.4"/>
<path d="M2.40384 27.7727L2.25372 27.4974L2.1036 27.2221L1.95348 26.9467L1.80337 26.6714L1.65325 26.3961L1.50314 26.1207L1.35302 25.8454L1.2029 25.57L1.05278 25.2947L1 24.1898V22.6352V21.0806V19.526V17.9713V16.4167V14.8621V13.3075V11.7528L1.00567 10.5991L1.02485 10.3948L1.04432 10.1904L1.06431 9.98612L1.08506 9.78174L1.10678 9.57737L1.12968 9.37295L1.15403 9.16851L1.18002 8.96402L1.2079 8.75948L1.23787 8.5549L1.27009 8.35033L1.30457 8.14596L1.34148 7.94185L1.38086 7.73813L1.42281 7.53496L1.46741 7.33243L1.51476 7.13064L1.56493 6.92973L1.61802 6.72983L1.67411 6.53108L1.73327 6.33356L1.79561 6.13741L1.86121 5.94273L1.93015 5.74968L2.00252 5.55835L2.07841 5.36886L2.1579 5.18137L2.24106 4.99592L2.32789 4.81253L2.41838 4.63111L2.51246 4.45155L2.61011 4.27383L2.71131 4.0978L2.816 3.92344L2.92418 3.75066L3.03581 3.57937L3.15083 3.40951L3.26924 3.24097L3.39099 3.0737L3.51605 2.90758L3.64439 2.7426L3.77598 2.57864L3.91078 2.41561L4.04876 2.25348L4.18988 2.09211L4.33417 1.93158L4.48206 1.77373L4.63441 1.62188L4.79211 1.47942L4.95603 1.34972L5.12701 1.23616L5.30594 1.14208L5.49367 1.07086L5.6911 1.02545L5.89959 1.00019L6.11756 1L6.32617 1.02514L6.5237 1.0703L6.71154 1.14128L6.89057 1.23514L7.06164 1.34855L7.22562 1.4781L7.38338 1.62044L7.53579 1.77222L7.68369 1.93002L7.82795 2.09056L7.96903 2.25192L8.10695 2.41406L8.24169 2.57709L8.37319 2.74104L8.50145 2.90605L8.62644 3.07214L8.74812 3.23941L8.86647 3.40795L8.98146 3.57781L9.09307 3.74909L9.20126 3.92186L9.306 4.0962L9.40728 4.2722L9.50505 4.4499L9.59929 4.62941L9.68999 4.81081L9.77711 4.99416L9.8606 5.17955L9.94049 5.367L10.0168 5.55642L10.0897 5.74768L10.1591 5.94066L10.2252 6.13526L10.288 6.33137L10.3475 6.52885L10.404 6.72757L10.4574 6.92742L10.5077 7.12829L10.5551 7.33005L10.5997 7.53261L10.6415 7.7358L10.6805 7.93954L10.7169 8.1437L10.7507 8.34817L10.782 8.55282L10.8108 8.75753L10.8373 8.9622L10.8616 9.16686L10.8842 9.37152L10.9052 9.57612L10.9248 9.78073L10.9434 9.98532L10.9611 10.1899L10.9782 10.3945L10.995 10.599L11 11.7528V13.3075V14.8621V16.4167V17.9713V19.526V21.0806V22.6352V24.1898L10.9472 25.2947L10.7971 25.5701L10.647 25.8454L10.4969 26.1207L10.3468 26.3961L10.1966 26.6714L10.0465 26.9468L9.8964 27.2221L9.74629 27.4974L9.59617 27.7728" stroke="black" stroke-width="0.4"/>
<path d="M5.99997 27.7727V1.00009" stroke="black" stroke-width="0.4"/>
<path fill-rule="evenodd" clip-rule="evenodd" d="M8.83733 57.3858L9.15285 57.5333L9.23875 57.8789L9.01623 58.1648L8.6024 58.1861L8.36728 57.9252L8.42646 57.6022L8.59444 57.4069L8.83733 57.3858Z" fill="#1A1A1A"/>
<path fill-rule="evenodd" clip-rule="evenodd" d="M8.15768 58.2203L7.95467 58.1947L7.45496 58.8091L7.44716 59.1675L7.3847 59.4662L7.4628 59.7905L7.39252 60.1489L7.43937 60.4476L7.3847 60.7122L7.4628 60.9767L7.39252 61.2925L7.42376 61.5058L7.40034 61.8215L7.65019 61.8983L7.64235 58.8432L8.15768 58.2203Z" fill="#474747"/>
<path fill-rule="evenodd" clip-rule="evenodd" d="M7.64264 61.9174L9.90628 61.9054V58.8399L9.24374 57.8382L8.97717 58.2121L8.62761 58.2346L8.48497 58.0982L8.27205 57.9951L8.16163 58.2485L7.64264 58.8399V61.9174Z" fill="#999999"/>
<path d="M7.65799 58.8475V61.8813H9.89105L7.65844 58.8473L8.1606 58.22L8.30798 57.8352" stroke="black" stroke-width="0.383082" stroke-linecap="round" stroke-linejoin="round"/>
<path d="M7.65991 59.5494L9.40693 61.8728" stroke="black" stroke-width="0.383082" stroke-linecap="round" stroke-linejoin="round"/>
<path d="M8.94631 61.8727L7.65799 60.1745" stroke="black" stroke-width="0.383082" stroke-linecap="round" stroke-linejoin="round"/>
<path d="M8.52466 61.8642L7.65799 60.806" stroke="black" stroke-width="0.383082" stroke-linecap="round" stroke-linejoin="round"/>
<path d="M8.064 61.8813L7.65799 61.3693" stroke="black" stroke-width="0.383082" stroke-linecap="round" stroke-linejoin="round"/>
<path d="M9.89101 61.8749V58.8283L9.45079 58.1625" stroke="black" stroke-width="0.383082" stroke-linecap="round" stroke-linejoin="round"/>
<path d="M7.66476 61.8812L9.88424 58.8399" stroke="black" stroke-width="0.383082" stroke-linecap="round" stroke-linejoin="round"/>
<path d="M9.89271 59.5494L8.14569 61.8728" stroke="black" stroke-width="0.383082" stroke-linecap="round" stroke-linejoin="round"/>
<path d="M8.59106 61.8727L9.87936 60.1745" stroke="black" stroke-width="0.383082" stroke-linecap="round" stroke-linejoin="round"/>
<path d="M9.02718 61.8642L9.88831 60.8121" stroke="black" stroke-width="0.383082" stroke-linecap="round" stroke-linejoin="round"/>
<path d="M8.52466 61.8642L7.65799 60.806" stroke="black" stroke-width="0.383082" stroke-linecap="round" stroke-linejoin="round"/>
<path d="M9.47989 61.8813L9.88588 61.3693" stroke="black" stroke-width="0.383082" stroke-linecap="round" stroke-linejoin="round"/>
<path d="M7.66476 61.3019L9.67443 58.502" stroke="black" stroke-width="0.383082" stroke-linecap="round" stroke-linejoin="round"/>
<path d="M7.6537 60.7226L9.24113 58.4602" stroke="black" stroke-width="0.383082" stroke-linecap="round" stroke-linejoin="round"/>
<path d="M9.88973 61.2868L7.91046 58.5352" stroke="black" stroke-width="0.383082" stroke-linecap="round" stroke-linejoin="round"/>
<path d="M9.8897 60.6864L8.35371 58.4975" stroke="black" stroke-width="0.383082" stroke-linecap="round" stroke-linejoin="round"/>
<path d="M7.65018 60.0807L8.78319 58.4648L9.2631 57.8805" stroke="black" stroke-width="0.383082" stroke-linecap="round" stroke-linejoin="round"/>
<path d="M9.89898 60.0807L8.7853 58.4528L8.30244 57.8292" stroke="black" stroke-width="0.383082" stroke-linecap="round" stroke-linejoin="round"/>
<path d="M7.65799 59.4662L8.35289 58.5019" stroke="black" stroke-width="0.383082" stroke-linecap="round" stroke-linejoin="round"/>
<path d="M9.88323 59.4577L9.24297 58.4614" stroke="black" stroke-width="0.383082" stroke-linecap="round" stroke-linejoin="round"/>
<path fill-rule="evenodd" clip-rule="evenodd" d="M9.46355 58.184L9.37183 58.1776L9.24493 58.4614L9.279 58.1618L9.26935 57.8741L9.46355 58.184Z" fill="#474747" stroke="black" stroke-width="0.383082" stroke-linecap="round" stroke-linejoin="round"/>
<path fill-rule="evenodd" clip-rule="evenodd" d="M8.15869 58.2181L8.23287 58.2267L8.35388 58.5019L8.3129 58.1627L8.30896 57.8384L8.15869 58.2181Z" fill="#474747" stroke="black" stroke-width="0.383082" stroke-linecap="round" stroke-linejoin="round"/>
<path fill-rule="evenodd" clip-rule="evenodd" d="M8.77035 57.8639V58.1384L8.72204 58.1429L8.62817 58.2335L8.79104 58.4507L8.99257 58.2546L8.9056 58.1505L8.85729 58.143L8.85576 57.8624L8.77035 57.8639Z" fill="#474747" stroke="black" stroke-width="0.383082" stroke-linecap="round" stroke-linejoin="round"/>
<path d="M8.61991 58.2486L8.33281 58.2787" stroke="black" stroke-width="0.383082" stroke-linecap="round" stroke-linejoin="round"/>
<path d="M8.99808 58.2486L9.2686 58.2757" stroke="black" stroke-width="0.383082" stroke-linecap="round" stroke-linejoin="round"/>
<path d="M8.17329 58.2075L7.95467 58.1904C7.95467 58.1904 7.91379 58.3111 7.86488 58.3611C7.81599 58.4111 7.66578 58.4678 7.66578 58.4678C7.66578 58.4678 7.66809 58.5728 7.63064 58.6342C7.59307 58.6955 7.42763 58.792 7.42763 58.792C7.42763 58.792 7.47943 58.9995 7.47057 59.1078C7.4617 59.2161 7.37299 59.4235 7.37299 59.4235C7.37299 59.4235 7.46704 59.641 7.46669 59.7521C7.46633 59.8632 7.37689 60.0593 7.37689 60.0593C7.37689 60.0593 7.45074 60.2976 7.45105 60.4092C7.45136 60.5208 7.38859 60.7121 7.38859 60.7121C7.38859 60.7121 7.47075 60.9206 7.46669 61.0236C7.46264 61.1266 7.37299 61.301 7.37299 61.301C7.37299 61.301 7.44893 61.4852 7.44714 61.5741C7.44522 61.6629 7.37299 61.8087 7.37299 61.8087L7.65015 61.8898" stroke="black" stroke-width="0.383082" stroke-linecap="round" stroke-linejoin="round"/>
<path d="M7.4315 58.7921L7.63842 58.839" stroke="black" stroke-width="0.383082" stroke-linecap="round" stroke-linejoin="round"/>
<path d="M7.90767 58.5502L7.88008 59.1477" stroke="black" stroke-width="0.383082" stroke-linecap="round" stroke-linejoin="round"/>
<path d="M8.34936 58.5261L8.32175 59.0873" stroke="black" stroke-width="0.383082" stroke-linecap="round" stroke-linejoin="round"/>
<path d="M9.23821 58.4899L9.2327 59.0873" stroke="black" stroke-width="0.383082" stroke-linecap="round" stroke-linejoin="round"/>
<path d="M9.67441 58.5201V59.1235" stroke="black" stroke-width="0.383082" stroke-linecap="round" stroke-linejoin="round"/>
<path fill-rule="evenodd" clip-rule="evenodd" d="M8.19984 57.8584L8.38668 57.8524L8.41681 57.6354L8.54338 57.4546L8.7724 57.3883L8.93513 57.3642L8.74829 57.2256H8.46503L8.27217 57.3823L8.19984 57.6414V57.8584Z" fill="#4D4D4D"/>
<path d="M9.01731 57.4095C9.01731 57.4095 8.82806 57.2654 8.7667 57.2474C8.69132 57.2254 8.6103 57.2114 8.53245 57.2218C8.46315 57.2311 8.39053 57.2533 8.33726 57.2986C8.28683 57.3415 8.25877 57.4072 8.23575 57.4693C8.20963 57.5397 8.20462 57.6165 8.19671 57.6912C8.18923 57.7619 8.18892 57.9045 8.18892 57.9045L8.3685 58.0667" stroke="black" stroke-width="0.383082" stroke-linecap="round" stroke-linejoin="round"/>
<path d="M8.38412 57.8277C8.38412 57.8277 8.38856 57.692 8.41537 57.6314C8.45074 57.5515 8.50378 57.4707 8.57932 57.4266C8.6408 57.3907 8.71901 57.3953 8.79014 57.3925C8.86058 57.3898 8.93484 57.385 9.00094 57.4096C9.06434 57.4331 9.12476 57.4746 9.16491 57.529C9.1935 57.5678 9.2004 57.6188 9.21176 57.6656C9.2287 57.7354 9.243 57.8789 9.243 57.8789" stroke="black" stroke-width="0.383082" stroke-linecap="round" stroke-linejoin="round"/>
<path fill-rule="evenodd" clip-rule="evenodd" d="M3.15496 57.3858L2.83945 57.5333L2.75354 57.8789L2.97607 58.1648L3.3899 58.1861L3.62502 57.9252L3.56583 57.6022L3.39785 57.4069L3.15496 57.3858Z" fill="#1A1A1A"/>
<path fill-rule="evenodd" clip-rule="evenodd" d="M3.83462 58.2203L4.03762 58.1947L4.53734 58.8091L4.54513 59.1675L4.60759 59.4662L4.5295 59.7905L4.59977 60.1489L4.55292 60.4476L4.60759 60.7122L4.5295 60.9767L4.59977 61.2925L4.56853 61.5058L4.59196 61.8215L4.3421 61.8983L4.34994 58.8432L3.83462 58.2203Z" fill="#474747"/>
<path fill-rule="evenodd" clip-rule="evenodd" d="M4.34966 61.9174L2.08602 61.9054V58.8399L2.74855 57.8382L3.01512 58.2121L3.36468 58.2346L3.50733 58.0982L3.72025 57.9951L3.83066 58.2485L4.34966 58.8399V61.9174Z" fill="#999999"/>
<path d="M4.3343 58.8475V61.8813H2.10125L4.33386 58.8473L3.8317 58.22L3.68432 57.8352" stroke="black" stroke-width="0.383082" stroke-linecap="round" stroke-linejoin="round"/>
<path d="M4.33238 59.5494L2.58536 61.8728" stroke="black" stroke-width="0.383082" stroke-linecap="round" stroke-linejoin="round"/>
<path d="M3.04599 61.8727L4.3343 60.1745" stroke="black" stroke-width="0.383082" stroke-linecap="round" stroke-linejoin="round"/>
<path d="M3.46763 61.8642L4.3343 60.806" stroke="black" stroke-width="0.383082" stroke-linecap="round" stroke-linejoin="round"/>
<path d="M3.92829 61.8813L4.3343 61.3693" stroke="black" stroke-width="0.383082" stroke-linecap="round" stroke-linejoin="round"/>
<path d="M2.10128 61.8749V58.8283L2.5415 58.1625" stroke="black" stroke-width="0.383082" stroke-linecap="round" stroke-linejoin="round"/>
<path d="M4.32753 61.8812L2.10806 58.8399" stroke="black" stroke-width="0.383082" stroke-linecap="round" stroke-linejoin="round"/>
<path d="M2.09958 59.5494L3.8466 61.8728" stroke="black" stroke-width="0.383082" stroke-linecap="round" stroke-linejoin="round"/>
<path d="M3.40123 61.8727L2.11293 60.1745" stroke="black" stroke-width="0.383082" stroke-linecap="round" stroke-linejoin="round"/>
<path d="M2.96512 61.8642L2.10398 60.8121" stroke="black" stroke-width="0.383082" stroke-linecap="round" stroke-linejoin="round"/>
<path d="M3.46763 61.8642L4.3343 60.806" stroke="black" stroke-width="0.383082" stroke-linecap="round" stroke-linejoin="round"/>
<path d="M2.51241 61.8813L2.10641 61.3693" stroke="black" stroke-width="0.383082" stroke-linecap="round" stroke-linejoin="round"/>
<path d="M4.32753 61.3019L2.31787 58.502" stroke="black" stroke-width="0.383082" stroke-linecap="round" stroke-linejoin="round"/>
<path d="M4.33859 60.7226L2.75117 58.4602" stroke="black" stroke-width="0.383082" stroke-linecap="round" stroke-linejoin="round"/>
<path d="M2.10258 61.2868L4.08185 58.5352" stroke="black" stroke-width="0.383082" stroke-linecap="round" stroke-linejoin="round"/>
<path d="M2.10259 60.6864L3.63858 58.4975" stroke="black" stroke-width="0.383082" stroke-linecap="round" stroke-linejoin="round"/>
<path d="M4.34213 60.0807L3.20912 58.4648L2.72921 57.8805" stroke="black" stroke-width="0.383082" stroke-linecap="round" stroke-linejoin="round"/>
<path d="M2.09331 60.0807L3.20699 58.4528L3.68985 57.8292" stroke="black" stroke-width="0.383082" stroke-linecap="round" stroke-linejoin="round"/>
<path d="M4.3343 59.4662L3.6394 58.5019" stroke="black" stroke-width="0.383082" stroke-linecap="round" stroke-linejoin="round"/>
<path d="M2.10907 59.4577L2.74933 58.4614" stroke="black" stroke-width="0.383082" stroke-linecap="round" stroke-linejoin="round"/>
<path fill-rule="evenodd" clip-rule="evenodd" d="M2.52874 58.184L2.62047 58.1776L2.74736 58.4614L2.71329 58.1618L2.72295 57.8741L2.52874 58.184Z" fill="#474747" stroke="black" stroke-width="0.383082" stroke-linecap="round" stroke-linejoin="round"/>
<path fill-rule="evenodd" clip-rule="evenodd" d="M3.8336 58.2181L3.75942 58.2267L3.63841 58.5019L3.6794 58.1627L3.68333 57.8384L3.8336 58.2181Z" fill="#474747" stroke="black" stroke-width="0.383082" stroke-linecap="round" stroke-linejoin="round"/>
<path fill-rule="evenodd" clip-rule="evenodd" d="M3.22195 57.8639V58.1384L3.27026 58.1429L3.36412 58.2335L3.20125 58.4507L2.99973 58.2546L3.0867 58.1505L3.135 58.143L3.13653 57.8624L3.22195 57.8639Z" fill="#474747" stroke="black" stroke-width="0.383082" stroke-linecap="round" stroke-linejoin="round"/>
<path d="M3.37238 58.2486L3.65948 58.2787" stroke="black" stroke-width="0.383082" stroke-linecap="round" stroke-linejoin="round"/>
<path d="M2.99422 58.2486L2.72369 58.2757" stroke="black" stroke-width="0.383082" stroke-linecap="round" stroke-linejoin="round"/>
<path d="M3.81902 58.2075L4.03763 58.1904C4.03763 58.1904 4.07852 58.3111 4.12743 58.3611C4.17632 58.4111 4.32653 58.4678 4.32653 58.4678C4.32653 58.4678 4.32422 58.5728 4.36167 58.6342C4.39924 58.6955 4.56468 58.792 4.56468 58.792C4.56468 58.792 4.51288 58.9995 4.52174 59.1078C4.53061 59.2161 4.61932 59.4235 4.61932 59.4235C4.61932 59.4235 4.52527 59.641 4.52562 59.7521C4.52598 59.8632 4.61542 60.0593 4.61542 60.0593C4.61542 60.0593 4.54157 60.2976 4.54126 60.4092C4.54095 60.5208 4.60372 60.7121 4.60372 60.7121C4.60372 60.7121 4.52156 60.9206 4.52562 61.0236C4.52967 61.1266 4.61932 61.301 4.61932 61.301C4.61932 61.301 4.54337 61.4852 4.54516 61.5741C4.54709 61.6629 4.61932 61.8087 4.61932 61.8087L4.34216 61.8898" stroke="black" stroke-width="0.383082" stroke-linecap="round" stroke-linejoin="round"/>
<path d="M4.56079 58.7921L4.35388 58.839" stroke="black" stroke-width="0.383082" stroke-linecap="round" stroke-linejoin="round"/>
<path d="M4.08462 58.5502L4.11221 59.1477" stroke="black" stroke-width="0.383082" stroke-linecap="round" stroke-linejoin="round"/>
<path d="M3.64293 58.5261L3.67055 59.0873" stroke="black" stroke-width="0.383082" stroke-linecap="round" stroke-linejoin="round"/>
<path d="M2.75409 58.4899L2.7596 59.0873" stroke="black" stroke-width="0.383082" stroke-linecap="round" stroke-linejoin="round"/>
<path d="M2.31789 58.5201V59.1235" stroke="black" stroke-width="0.383082" stroke-linecap="round" stroke-linejoin="round"/>
<path fill-rule="evenodd" clip-rule="evenodd" d="M3.79245 57.8584L3.60562 57.8524L3.57548 57.6354L3.44892 57.4546L3.2199 57.3883L3.05717 57.3642L3.244 57.2256H3.52727L3.72013 57.3823L3.79245 57.6414V57.8584Z" fill="#4D4D4D"/>
<path d="M2.97498 57.4095C2.97498 57.4095 3.16424 57.2654 3.22559 57.2474C3.30097 57.2254 3.38199 57.2114 3.45984 57.2218C3.52915 57.2311 3.60176 57.2533 3.65503 57.2986C3.70547 57.3415 3.73352 57.4072 3.75655 57.4693C3.78266 57.5397 3.78768 57.6165 3.79558 57.6912C3.80307 57.7619 3.80338 57.9045 3.80338 57.9045L3.62379 58.0667" stroke="black" stroke-width="0.383082" stroke-linecap="round" stroke-linejoin="round"/>
<path d="M3.60817 57.8277C3.60817 57.8277 3.60374 57.692 3.57693 57.6314C3.54156 57.5515 3.48852 57.4707 3.41298 57.4266C3.35149 57.3907 3.27329 57.3953 3.20215 57.3925C3.13171 57.3898 3.05745 57.385 2.99135 57.4096C2.92795 57.4331 2.86754 57.4746 2.82738 57.529C2.7988 57.5678 2.79189 57.6188 2.78053 57.6656C2.7636 57.7354 2.74929 57.8789 2.74929 57.8789" stroke="black" stroke-width="0.383082" stroke-linecap="round" stroke-linejoin="round"/>
<defs>
<linearGradient id="paint0_linear_8_4241" x1="2.39589" y1="83.5861" x2="9.5963" y2="83.5861" gradientUnits="userSpaceOnUse">
<stop stop-color="#F6F6F6"/>
<stop offset="0.500126" stop-color="white"/>
<stop offset="1" stop-color="#F6F6F6"/>
</linearGradient>
<linearGradient id="paint1_linear_8_4241" x1="2.39589" y1="52.5342" x2="9.59614" y2="52.5342" gradientUnits="userSpaceOnUse">
<stop stop-color="#101010"/>
<stop offset="0.499906" stop-color="#282828"/>
<stop offset="1" stop-color="#101010"/>
</linearGradient>
<linearGradient id="paint2_linear_8_4241" x1="2.39589" y1="137.205" x2="9.5963" y2="137.205" gradientUnits="userSpaceOnUse">
<stop stop-color="#101010"/>
<stop offset="0.499906" stop-color="#282828"/>
<stop offset="1" stop-color="#101010"/>
</linearGradient>
<linearGradient id="paint3_linear_8_4241" x1="2.40831" y1="140.864" x2="9.57386" y2="140.864" gradientUnits="userSpaceOnUse">
<stop stop-color="#101010"/>
<stop offset="0.499906" stop-color="#282828"/>
<stop offset="1" stop-color="#101010"/>
</linearGradient>
<linearGradient id="paint4_linear_8_4241" x1="1.41531" y1="129.688" x2="6.05852" y2="129.688" gradientUnits="userSpaceOnUse">
<stop stop-color="#181818"/>
<stop offset="1" stop-color="#3C3C3C"/>
</linearGradient>
<linearGradient id="paint5_linear_8_4241" x1="2.32966" y1="132.278" x2="3.7279" y2="139.752" gradientUnits="userSpaceOnUse">
<stop stop-color="#080808"/>
<stop offset="1" stop-color="#141414"/>
</linearGradient>
<linearGradient id="paint6_linear_8_4241" x1="10.5849" y1="129.688" x2="5.94165" y2="129.688" gradientUnits="userSpaceOnUse">
<stop stop-color="#181818"/>
<stop offset="1" stop-color="#3C3C3C"/>
</linearGradient>
<linearGradient id="paint7_linear_8_4241" x1="9.67054" y1="132.278" x2="8.2723" y2="139.752" gradientUnits="userSpaceOnUse">
<stop stop-color="#080808"/>
<stop offset="1" stop-color="#141414"/>
</linearGradient>
<linearGradient id="paint8_linear_8_4241" x1="-0.290954" y1="268.21" x2="5.1536" y2="268.21" gradientUnits="userSpaceOnUse">
<stop stop-color="#E6E6E6"/>
<stop offset="1" stop-color="#F9F9F9"/>
</linearGradient>
<linearGradient id="paint9_linear_8_4241" x1="-0.290965" y1="268.21" x2="5.15359" y2="268.21" gradientUnits="userSpaceOnUse">
<stop stop-color="#E6E6E6"/>
<stop offset="1" stop-color="#F9F9F9"/>
</linearGradient>
<linearGradient id="paint10_linear_8_4241" x1="12.6436" y1="268.354" x2="5.90117" y2="268.354" gradientUnits="userSpaceOnUse">
<stop stop-color="#E6E6E6"/>
<stop offset="1" stop-color="#F9F9F9"/>
</linearGradient>
<linearGradient id="paint11_linear_8_4241" x1="12.6435" y1="268.354" x2="5.90112" y2="268.354" gradientUnits="userSpaceOnUse">
<stop stop-color="#E6E6E6"/>
<stop offset="1" stop-color="#F9F9F9"/>
</linearGradient>
</defs>
</svg>
