<svg width="3" height="6" viewBox="0 0 3 6" fill="none" xmlns="http://www.w3.org/2000/svg">
<path fill-rule="evenodd" clip-rule="evenodd" d="M2.1949 0.564368C3.55791 2.59951 2.78847 3.93997 1.42545 5.29999C0.128393 4.04759 -0.53113 2.63865 0.524107 0.564368C0.721963 0.192564 1.95307 0.231701 2.1949 0.564368Z" fill="url(#paint0_linear_21_4540)"/>
<path fill-rule="evenodd" clip-rule="evenodd" d="M1.93109 0.525253C2.94235 1.74829 2.23886 2.32557 1.40347 3.14746C1.38148 3.15724 1.3595 3.16702 1.31553 3.16702C1.27156 3.16702 1.2276 3.15724 1.2276 3.14746C0.458153 2.37449 0.0184714 1.67002 0.721962 0.535036C0.897835 0.270859 1.75521 0.309997 1.93109 0.525253Z" fill="#F9A31A"/>
<path fill-rule="evenodd" clip-rule="evenodd" d="M1.73324 0.495898C2.30482 1.08296 1.99705 1.4939 1.44745 1.90484C1.42546 1.92441 1.38149 1.9342 1.31554 1.9342C1.24959 1.9342 1.20562 1.92441 1.18364 1.90484C0.678003 1.53304 0.590066 0.994899 1.00776 0.495898C1.11768 0.358917 1.60133 0.378486 1.73324 0.495898Z" fill="#FAD06D"/>
<path fill-rule="evenodd" clip-rule="evenodd" d="M1.60132 0.4959C1.88712 0.848136 1.73323 1.09275 1.46942 1.38628C1.44743 1.39606 1.42545 1.40584 1.3595 1.40584C1.31553 1.40584 1.27156 1.39606 1.24958 1.38628C1.00775 1.10253 0.853865 0.838351 1.11767 0.486115C1.20561 0.378487 1.51339 0.407841 1.60132 0.4959Z" fill="#FAE6B2"/>
<path fill-rule="evenodd" clip-rule="evenodd" d="M1.4914 0.535006C1.62331 0.711125 1.55735 0.838322 1.42545 0.985087C1.42545 0.994871 1.40346 0.994871 1.38148 0.994871C1.3595 0.994871 1.33751 0.994871 1.33751 0.985087C1.20561 0.848106 1.13966 0.711125 1.27156 0.535006C1.27156 0.4763 1.44743 0.495869 1.4914 0.535006Z" fill="white"/>
<defs>
<linearGradient id="paint0_linear_21_4540" x1="1.44845" y1="1.54043" x2="1.44845" y2="5.11907" gradientUnits="userSpaceOnUse">
<stop stop-color="#F37121"/>
<stop offset="1" stop-color="#E34E27"/>
</linearGradient>
</defs>
</svg>
