<svg width="128" height="128" viewBox="0 0 128 128" fill="none" xmlns="http://www.w3.org/2000/svg">
<path fill-rule="evenodd" clip-rule="evenodd" d="M128 63.9746C128 80.9418 121.257 97.214 109.255 109.212C97.2525 121.209 80.9739 127.949 64 127.949C47.0262 127.949 30.7475 121.209 18.7452 109.212C6.74284 97.214 0 80.9418 0 63.9746C0 47.0075 6.74284 30.7353 18.7452 18.7377C30.7475 6.74017 47.0262 0 64 0C80.9739 0 97.2525 6.74017 109.255 18.7377C121.257 30.7353 128 47.0075 128 63.9746V63.9746Z" fill="#BE7539"/>
<path fill-rule="evenodd" clip-rule="evenodd" d="M126.57 77.5671C112.79 137.197 34.5746 145.931 7.14795 93.1242C10.4318 92.713 14.6583 97.3979 16.1879 92.3085C19.1004 91.1573 20.5411 100.587 22.9112 94.2754C25.9237 91.7751 27.3845 88.3948 28.5873 84.77C33.7164 83.9077 40.9533 85.7145 42.8787 79.0561C47.6232 75.8069 47.5543 69.2796 48.2924 64.1191C48.557 58.4875 48.8482 51.9935 52.7701 47.7042C56.8677 45.6951 62.8795 38.3433 56.8543 35.243C51.9608 31.7005 45.6 33.8251 40.2196 31.5182C34.0922 29.7092 26.2684 28.6735 21.2815 33.654C18.4823 36.2253 17.9465 32.305 20.1876 27.2689C23.2869 23.1952 24.4364 13.1498 31.4442 15.8745C36.8646 14.3432 43.141 14.4099 48.4458 14.4099C49.075 20.8061 59.4445 19.2681 58.7375 12.9098C60.4339 8.57378 67.1104 13.9187 70.9367 12.9164C77.6044 14.3788 79.9122 5.34903 85.0414 4.8801C89.7659 7.63814 95.4576 9.12717 99.415 13.0187C103.295 14.7633 103.568 19.8682 98.4612 19.686C91.4756 22.164 102.666 30.9382 105.678 25.4799C107.904 22.9329 110.403 20.6261 112.495 24.6642C117.235 28.5779 116.292 35.383 116.128 40.8636C114.54 47.2975 114.845 54.2604 118.015 60.1921C121.05 64.7414 122.457 69.6019 122.508 75.018C124.134 75.8536 126.455 74.9313 126.57 77.5671V77.5671Z" fill="url(#paint0_linear_7_3)"/>
<path fill-rule="evenodd" clip-rule="evenodd" d="M65.7476 47.4664H63.6332C60.5228 48.3532 56.5009 48.851 54.6689 51.9157C53.9396 55.505 49.3218 56.5828 50.2578 60.6543C51.0827 62.1123 51.8831 63.1479 50.0244 64.2925C48.6948 67.2883 47.999 70.5486 48.119 73.8578C48.3903 76.8426 50.7803 79.1161 51.9008 81.8186C53.3349 84.67 54.2598 88.1281 56.9188 90.1038C60.4117 91.0173 62.9507 87.8836 66.3812 88.1792C68.3088 86.3013 74.8631 85.2056 77.9757 84.2944C81.4419 85.4345 85.8218 85.2567 88.2808 82.2231C92.385 80.7229 120.741 69.2885 124.051 70.1419C127.993 70.2197 122.869 62.3278 122.486 59.5298C120.874 56.9362 122.662 63.8791 121.43 60.1521C121.112 56.3406 119.914 64.0324 119.829 60.101C120.656 56.4206 118.315 53.5292 117.257 50.2311C117.035 48.4109 118.7 43.246 116.87 42.8393C115.827 43.6105 115.77 48.5554 114.969 45.4329C113.64 43.1949 123.687 25.9221 107.601 23.1218C100.253 31.0626 106.765 29.2046 104.678 34.8563C103.635 37.6832 101.634 35.6786 99.9976 36.2498C102.332 37.2965 99.6307 48.2176 100.044 49.271C103.766 50.5223 102.935 54.2693 104.235 57.2096C106.141 57.6807 106.312 58.6786 104.393 59.3609C104.829 61.2011 102.225 60.8766 103.057 62.9612C101.114 64.1391 102.494 59.092 101.303 57.9608C100.384 55.6205 99.6885 60.261 100.829 60.9699C102.439 64.2925 96.8894 62.6212 98.2412 65.4837C100.529 67.715 96.3313 69.9819 95.2864 66.9905C94.2437 64.3969 92.6673 66.7172 92.4961 68.064C91.4312 66.3282 86.471 64.3792 88.4986 68.1595C89.3924 70.253 85.6284 70.4086 87.0268 67.9439C84.7235 65.9904 85.426 68.0328 85.7462 69.5063C83.4606 68.7951 81.6464 64.4191 79.4253 65.5237C80.5904 69.5574 75.1788 70.762 73.149 67.8817C71.1146 66.5216 69.2426 63.5368 72.2707 62.1323C73.6003 59.8209 73.9004 56.8718 73.0978 54.6026C76.8752 53.0025 70.4321 52.3713 72.0707 49.5799C72.2307 47.5575 69.5183 48.0065 69.207 46.2485C67.6374 45.724 67.0549 47.6953 65.7476 47.4664V47.4664ZM102.114 55.4027C102.114 54.6449 102.883 56.7317 103.068 57.4674C103.172 57.8896 103.384 58.3008 103.384 58.7364C103.384 59.2987 102.512 58.023 102.114 57.6252C101.545 57.0562 101.485 56.4517 102.114 55.4027V55.4027ZM63.5243 100.805C62.6038 101.505 61.1009 101.24 60.4317 102.216C60.803 103.876 58.4351 103.467 58.4507 105.025C58.0238 106.299 58.8464 108.174 57.1723 108.346C55.9117 109.083 53.4661 108.681 52.5434 107.639C51.5273 106.965 50.1467 106.983 49.3663 108.021C48.1057 108.677 46.725 107.663 45.6156 107.085C44.8152 106.368 43.977 105.71 43.1321 105.052C42.1405 103.832 40.4219 103.781 39.0679 103.185C37.4605 102.961 37.4027 101.069 36.7246 99.9448C36.0242 98.6158 35.4017 97.2579 34.6436 95.9489C33.7898 94.5843 34.3479 92.5085 35.8908 91.9151C36.9269 91.2795 38.292 90.6372 39.4392 91.3951C40.6821 91.9218 60.9719 99.7537 62.4126 100.327C62.7706 100.514 63.1508 100.654 63.5243 100.805V100.805ZM28.2694 10.954C31.5532 8.70489 35.166 6.69359 39.2658 5.00231C39.8328 5.76905 42.1161 4.77118 43.161 4.73562C44.6129 3.85554 46.2225 3.5244 47.9078 3.60218C49.7598 3.76442 46.9095 4.37781 46.3648 4.40226C44.7485 4.61561 43.0988 5.33123 41.9493 6.46912C41.7737 8.4182 44.1015 7.13141 45.0753 6.88027C45.9869 6.58914 47.9612 6.00908 47.1474 7.74036C46.3537 9.49386 44.0192 9.5183 42.4607 10.2562C40.0818 11.0473 37.6962 11.9474 35.5662 13.2787C34.0944 14.5232 35.8686 15.2989 37.1025 14.9166C39.1413 14.7255 41.1912 14.7921 43.2322 14.7344C44.4728 14.4432 46.5382 12.2986 47.3987 14.1232C46.6294 16.1589 49.3085 14.2899 49.5219 15.2277C48.7482 16.5168 48.7393 18.088 50.4246 18.577C51.803 19.3793 53.3638 19.7082 54.949 19.5259C57.2523 19.5059 54.7311 21.7662 55.4203 22.8174C56.1362 23.4619 57.9193 24.7375 56.1385 25.3332C54.7044 25.8088 52.7124 25.042 51.7852 26.5888C52.9258 28.0845 50.1778 28.1045 49.2262 28.5668C47.3898 29.0646 45.6823 28.0001 44.2949 26.9266C42.374 25.9199 40.1596 25.7621 38.0297 25.8821C36.2443 25.9043 34.5146 26.4444 32.7249 26.3577C30.8862 26.6111 28.9741 26.9 27.3867 27.9401C25.6614 28.4912 24.1407 29.7847 22.2242 29.5269C20.8924 29.0624 22.7111 26.8733 23.0357 25.971C23.7427 24.2375 25.0611 22.8418 25.7481 21.1128C26.1128 19.6971 27.6602 19.0237 28.3183 17.7591C28.6784 16.2901 29.4321 14.9322 29.6167 13.4209C29.6856 12.5653 28.8563 11.5163 28.2694 10.954V10.954ZM43.3545 18.8925C43.9036 19.2192 43.9125 19.9549 44.355 20.3749C44.7529 20.6683 44.724 21.1794 44.1571 21.0772C42.9476 21.255 41.6714 21.2528 40.5576 21.8239C39.6882 22.2129 38.8034 22.5862 37.8651 22.7729C36.6468 23.1018 35.3684 23.3041 34.11 23.1241C33.6564 23.2819 32.7849 22.9463 33.234 22.3884C33.7476 21.5928 34.7369 21.2928 35.6418 21.2928C36.4511 21.2705 37.296 21.3017 38.0474 20.9527C38.7611 20.7683 39.5504 20.7661 40.1663 20.3082C41.1712 19.7193 42.2006 19.1259 43.3545 18.8925V18.8925ZM74.9587 0.953033C83.8675 2.57097 91.6291 5.54014 99.9909 11.054C99.1594 10.2962 97.0962 12.6053 98.837 12.8208C100.193 13.1475 101.327 13.9676 102.612 14.461C103.882 14.661 103.986 16.6145 102.432 16.1923C100.954 16.5279 101.663 18.3125 101.883 19.0926C100.945 20.0971 99.5774 18.2791 98.459 19.1059C97.4252 19.5615 95.8066 19.497 95.8667 21.035C95.8733 22.0751 95.5398 23.1018 94.3104 22.6285C92.9475 22.4884 91.5334 21.9951 90.4952 21.0883C89.5592 20.1882 88.6365 19.1992 87.4737 18.6592C86.5844 17.8747 85.7773 16.9457 84.579 16.6123C83.3472 15.8856 81.8621 15.6745 80.7771 14.7121C79.8522 14.2121 77.889 12.8764 79.5343 12.0008C80.8171 11.5563 82.449 10.0606 80.6437 9.00937C80.0901 7.86703 82.9181 8.33374 82.6247 7.44699C81.602 6.6358 80.0501 6.398 79.5988 4.94898C78.8473 3.69997 77.5133 2.92211 76.1638 2.46207C75.6791 2.1087 75.021 1.57754 74.9587 0.953033V0.953033Z" fill="#9F673A"/>
<path fill-rule="evenodd" clip-rule="evenodd" d="M109.738 60.801C107.096 60.3299 105.696 64.1502 107.826 65.8259C106.601 67.6883 106.196 62.1611 105.449 65.5637C107.259 66.8394 106.487 68.5195 104.967 66.6505C102.247 66.2371 104.477 71.8221 100.809 70.7686C102.058 72.7911 102.93 75.7913 99.186 74.9935C95.8977 75.4046 96.9404 70.7175 94.1747 70.642C92.296 68.2506 89.9993 71.7376 88.0806 71.8776C88.3674 73.9512 86.2419 73.6689 88.0472 75.5491C84.2787 75.8447 89.9593 82.4631 85.2814 81.9142C82.8425 85.7834 80.7548 79.4806 83.7563 78.1049C81.9287 75.9914 76.9618 78.8116 74.6985 76.1136C72.8799 74.5801 67.8352 70.9553 71.6971 69.4863C72.1906 65.5881 68.0953 64.4125 66.5968 61.8611C67.5328 59.2231 66.4768 58.7364 64.1601 59.6898C60.7362 60.3943 57.4057 60.8032 53.8328 60.8499C50.9603 60.9477 50.4578 63.6613 50.9158 64.7681C47.7854 65.9415 50.907 69.8463 48.3057 71.3687C49.6197 75.8202 44.0147 76.9159 43.7857 80.6918C42.4918 82.2764 42.1227 84.2544 41.638 80.9963C41.3401 77.796 40.3885 83.5477 39.6259 84.2322C37.2003 84.35 35.5017 88.7637 32.6825 85.8145C30.6727 84.1899 27.7802 84.0899 25.6836 82.9432C25.8281 85.0545 28.4405 86.2835 25.7414 87.7792C24.2985 92.733 30.586 90.3061 32.8693 91.9862C35.1437 90.0794 39.5881 91.9596 40.3085 94.6532C40.1995 97.5979 43.4189 99.2203 44.9663 96.5222C45.4465 98.3113 46.7672 98.7158 47.2963 97.1245C49.8264 100.065 53.8751 98.5558 57.1722 99.3758C59.36 101.187 65.4785 98.9425 65.2206 102.394C63.4375 103.721 63.4953 106.132 60.5472 105.443C59.2977 107.826 64.4936 107.688 65.9365 106.805C67.5684 107.526 62.0012 108.021 65.5207 109.05C67.3683 113.291 69.3693 105.534 67.5506 103.872C67.2972 100.147 73.9293 101.865 76.6106 100.787C79.4275 100.178 83.1271 100.391 85.1503 102.114C84.3365 104.687 85.9284 107.932 88.7943 105.476C92.0848 104.403 92.1248 100.456 95.771 99.7159C98.9392 98.6247 100.66 95.5377 102.781 93.2841C105.302 90.7128 105.565 87.1658 106.881 83.961C109.744 81.2741 109.424 89.1637 112.392 85.1078C113.248 82.3142 111.832 79.1383 112.437 76.3581C110.836 74.7624 113.58 70.6286 113.926 74.5979C113.766 76.3025 113.864 83.7499 115.985 79.6628C116.27 76.2514 116.843 72.8066 118.091 69.5774C119.018 68.035 118.822 60.9744 117.201 65.7215C117.088 65.417 117.45 60.861 115.852 62.33C116.332 64.0124 116.161 68.0706 114.836 64.4014C113.866 61.5522 113.322 64.2658 113.88 65.7526C112.257 65.7859 113.148 61.63 110.983 63.5035C112.379 64.2236 113.131 66.5549 111.107 64.9081C109.037 62.9257 113.268 60.821 110.703 58.6986C110.202 54.7049 109.853 60.2098 110.874 61.3544C110.363 61.9967 109.869 61.3011 109.738 60.801V60.801ZM69.8762 82.3898C67.2482 83.1009 67.3305 90.6172 64.12 86.9302C61.6122 86.3435 59.9669 92.1196 56.8543 89.3749C55.9605 87.8725 56.9721 85.9034 55.0001 85.0189C55.3269 82.412 51.6117 81.3497 53.924 78.7872C52.7145 76.3203 47.2763 74.8846 49.8442 71.4754C52.0364 69.3485 48.4924 66.1726 51.694 64.1102C51.9875 60.9833 57.2812 60.9699 59.7602 61.9011C62.0879 60.8032 67.3127 59.0342 65.1428 63.6168C62.8016 66.4549 64.1156 70.1864 68.1287 68.5795C69.7628 68.8173 69.7072 71.342 67.9708 69.5307C65.3829 70.0597 71.0612 72.3066 67.9819 73.2133C63.6354 72.7911 70.5298 77.5248 66.0654 76.9915C63.6242 79.4628 69.9962 83.961 68.6511 79.7006C70.0985 78.5849 69.8828 78.096 69.2359 76.8581C70.8411 76.747 70.4298 73.7623 71.288 76.6181C72.6976 77.3893 73.4846 78.2916 74.9831 78.016C75.699 80.7985 76.5661 78.3538 77.6533 78.2449C79.3519 79.1294 82.8825 77.7804 81.673 81.0341C84.0609 84.9322 74.5985 85.6278 78.6071 81.9608C77.0686 79.4161 74.8364 86.1501 74.5496 81.7853C72.9955 80.6674 70.1274 82.3409 70.1363 80.2029C70.0007 80.9541 70.4742 81.6764 69.8762 82.3898V82.3898ZM61.3009 51.9113C60.8651 51.4846 62.2703 50.6045 60.5072 50.1644C59.8958 50.0111 59.4533 50.3378 58.7597 50.1644C57.7103 49.9022 57.4902 49.6088 56.6942 50.0066C56.045 50.3311 58.0971 51.1112 58.1238 51.1179C59.1487 51.3734 58.106 51.9557 57.648 52.0691C57.0989 52.2069 56.4652 52.6602 56.0606 52.8625C55.4736 53.1558 57.6903 53.2092 57.8059 53.1803C58.464 53.0158 58.942 52.6136 59.3955 52.3869C59.8491 52.1602 60.6406 52.1735 61.3009 51.9113ZM18.2644 70.2464C20.4833 70.5997 22.9734 67.795 21.8506 66.0015C21.0035 64.348 18.798 65.9304 18.5912 67.0683C16.9593 66.6771 19.7429 63.6768 21.0925 64.4703C23.5403 64.9147 23.5403 68.2728 21.6394 69.4374C20.7234 70.2019 19.4317 70.6375 18.2644 70.2464ZM11.1965 76.5959C10.3806 73.6823 15.7632 72.9444 15.5231 76.1092C15.701 77.4937 14.3425 79.385 12.7328 78.7672C15.8855 78.3116 13.8267 72.9755 11.8991 75.9247L11.1965 76.5959ZM9.847 84.6122C9.72471 83.7832 9.63801 83.3432 8.41741 83.3432C7.76154 83.3432 8.4352 84.9478 8.57749 85.0878C9.17111 85.6834 9.67358 85.4812 9.847 84.6122ZM7.94163 46.1952C8.72868 49.5221 8.08614 55.5072 5.058 56.065C1.53962 56.5717 0.892866 50.5089 3.7885 49.2821C7.68817 48.8976 1.91492 54.796 5.56047 54.2493C7.71707 53.2047 7.39914 49.531 7.75487 47.5197C7.79933 47.0752 7.85492 46.633 7.94163 46.1952V46.1952Z" fill="#CC8044"/>
<path fill-rule="evenodd" clip-rule="evenodd" d="M119.027 68.1017C119.834 68.5462 120.254 69.5552 121.059 69.8797C122.017 69.8152 123.035 69.7397 123.827 70.3953C124.625 70.9442 124.278 72.0066 124.347 72.8155C124.278 73.7956 124.583 74.918 123.911 75.7514C123.484 76.707 122.96 77.7382 123.218 78.8161C123.556 79.5051 124.172 80.1407 124.111 80.9563C124.165 81.9209 123.349 82.6143 122.975 83.4366C122.202 84.11 121.45 84.85 120.99 85.7834C120.53 86.628 119.036 86.5791 118.993 87.6703C118.74 88.5104 119.073 89.3305 119.107 90.1683C118.764 91.2217 117.677 90.1683 117.048 90.0283C116.243 90.115 115.16 90.1728 114.691 90.9195C113.842 91.9529 113.084 90.5017 112.357 90.0883C111.832 89.4038 112.855 88.3881 111.812 87.8503C111.336 87.0613 111.83 86.1879 111.999 85.3856C112.648 84.6945 112.304 83.6255 112.504 82.7609C112.515 81.3853 112.541 80.0029 112.49 78.6294C112.083 77.7916 112.415 76.8693 112.146 76.0114C111.952 75.198 111.725 74.329 111.961 73.5C112.399 73.1889 113.36 72.9378 113.789 73.1645C113.993 74.7446 113.931 76.3425 113.958 77.9338C114.084 78.6717 113.922 79.8384 114.782 80.1296C115.845 80.4963 115.992 79.1384 116.09 78.4205C116.263 77.4138 116.381 76.4003 116.328 75.3758C116.21 74.4135 116.759 73.5712 116.803 72.6266C116.83 71.6554 117.39 70.9398 117.82 70.1219C118.329 69.5619 117.664 68.224 118.733 68.244C118.838 68.2106 118.927 68.144 119.027 68.1017V68.1017Z" fill="url(#paint1_radial_7_3)"/>
<path fill-rule="evenodd" clip-rule="evenodd" d="M72.5754 7.62036C68.5868 8.22709 64.5359 8.47378 60.5006 8.40711C58.842 7.64037 55.5983 8.77381 57.8082 10.6895C58.7954 12.5386 61.6034 14.89 59.8937 16.7124C62.3927 18.2658 64.5559 20.3283 67.673 20.6061C68.8803 19.806 71.9506 21.015 69.6495 22.0995C67.1906 23.5174 65.3586 20.0927 62.9174 21.8573C61.0231 22.3596 58.8398 19.986 58.0305 21.9595C54.3732 21.1906 57.2991 25.2087 59.2711 25.1909C61.6078 26.9756 64.7627 26.1355 67.1172 27.8756C68.7913 29.947 70.172 32.2383 72.5821 33.6273C72.7999 34.6541 69.9808 34.1585 71.3059 36.0364C72.4109 38.7589 66.9571 33.9673 67.3484 36.7743C69.0848 37.6388 73.5625 38.7522 71.0635 41.2436C69.7496 42.2837 68.2622 47.1419 71.0391 46.8064C71.8017 44.9106 72.8133 43.1727 74.2162 44.0728C74.6253 42.8882 74.5297 40.1435 75.3301 42.8815C76.3306 45.064 76.4973 48.4576 74.1651 49.8467C72.2352 51.5135 75.7169 55.7583 77.9758 53.9737C80.6082 53.827 80.3992 50.2667 81.8466 49.4377C82.5224 51.8757 78.8629 55.705 83.0583 56.3562C83.7808 57.6807 85.3883 57.8096 86.1998 58.0074C86.7112 60.3143 87.7494 64.5303 90.7042 61.6567C92.2249 60.761 93.1876 59.5631 95.0886 60.2076C97.1118 59.3631 96.5115 55.4383 99.5063 56.4251C101.278 58.3164 98.6169 51.3023 101.707 53.2959C104.08 54.5627 102.223 52.2624 101.16 51.7513C102.005 51.0934 103.473 50.5356 101.796 49.371C99.6952 48.8599 98.9704 47.4264 100.402 45.6729C100.778 43.7461 100.1 41.6325 101.16 39.8457C102.054 37.9055 100.756 36.8743 99.3795 35.9631C100.609 34.2029 103.739 36.4342 105.247 34.4941C104.257 33.5629 105.036 32.4116 104.929 31.3426C102.088 30.7026 105.445 26.7178 102.074 26.2088C99.8575 25.2087 97.9099 23.6063 95.4443 23.1774C93.0031 23.333 90.9154 22.2707 89.4102 20.3194C87.8562 17.8947 84.5857 17.8147 82.4313 15.9478C80.2814 14.5921 76.793 13.2031 77.1954 10.1828C75.7058 9.25608 74.2473 8.19819 72.5754 7.62036V7.62036Z" fill="url(#paint2_radial_7_3)"/>
<path fill-rule="evenodd" clip-rule="evenodd" d="M71.3058 1.42864C72.5398 1.06194 73.5803 1.93314 74.7898 1.95981C76.5328 2.30651 78.0069 3.47328 79.0963 4.83564C79.9567 5.49125 80.9528 7.12697 79.4276 7.54256C78.9629 8.32486 77.9113 8.8138 78.8695 9.72944C79.3142 11.1985 77.102 9.9139 76.7707 10.8673C75.9792 12.1319 74.5897 9.70055 73.767 10.7962C73.9916 11.1251 75.3989 12.0519 74.2984 12.3341C73.2379 12.5475 72.2574 10.9273 71.4481 11.3696C72.184 12.7186 70.3054 11.7696 69.7117 11.7741C69.4939 13.0609 68.0265 11.8541 67.335 11.5896C66.4613 11.4385 65.0228 10.7784 64.5559 11.9074C63.7066 12.8986 62.3126 12.4275 61.8546 11.3518C61.0964 11.0985 60.5028 13.0186 59.9514 11.983C60.3272 10.7584 59.2422 10.0406 58.1372 10.165C57.3568 9.58054 56.841 8.64711 55.6627 8.81157C54.471 8.64045 53.3104 8.14929 52.0898 8.33597C51.2739 8.16262 52.0276 6.70693 50.9648 6.45579C49.6175 5.52682 50.678 4.00889 51.9342 3.75109C52.679 3.63997 51.8408 2.35984 52.9636 2.38207C54.2576 1.98425 55.5048 1.21973 56.9077 1.34641C58.5508 1.26418 60.1493 0.788579 61.8079 0.873031C63.5221 0.83525 65.2518 0.977487 66.9526 0.753021C68.3022 0.895257 69.7584 0.664124 70.9924 1.33974L71.1369 1.38864L71.3058 1.42864V1.42864ZM74.085 2.30206C75.1144 2.53319 75.9014 3.27104 76.8641 3.65108C77.3999 4.1489 77.7957 4.76674 78.5605 5.00454C79.0629 5.2179 80.0323 6.28022 79.1096 6.54247C78.2603 6.78916 79.6165 7.13808 78.9295 7.46034C78.3648 8.22041 77.5333 8.66489 76.6106 8.19374C75.7302 8.13595 74.8987 7.9026 74.0716 7.59146C72.8777 7.43811 71.6705 7.45366 70.4699 7.54034C69.5161 7.49811 68.5712 7.62257 67.6352 7.78036C65.9677 7.78259 64.3002 7.77592 62.6327 7.79592C61.8679 7.66924 61.0987 7.58923 60.3205 7.69369C59.2533 7.66257 58.1772 7.6159 57.1189 7.48256C56.1985 7.45589 55.8583 6.42912 56.0362 5.65349C56.5587 4.38448 57.7971 3.55329 59.0221 3.03102C59.8781 2.67321 60.7607 2.5043 61.6767 2.40429C62.5727 2.21983 63.5287 2.39762 64.3825 1.9887C65.1273 1.66422 65.9188 1.57532 66.7081 1.43531C68.1021 1.44865 69.5161 1.34197 70.8901 1.59977C71.726 1.78423 72.5042 2.13982 73.329 2.35317C73.6381 2.51097 73.7893 2.47319 74.085 2.30206V2.30206Z" fill="#5C4533"/>
<path fill-rule="evenodd" clip-rule="evenodd" d="M57.4902 3.57329C57.428 3.88888 56.8788 3.83554 56.6365 4.02889C56.1384 4.34003 56.6142 4.85119 57.05 4.8223C57.2412 4.86008 57.7859 4.89786 57.7103 5.06677C57.259 5.26679 56.7765 5.11788 56.3563 4.9312C55.8761 4.82452 55.7049 5.33346 55.7471 5.7135C55.7294 6.17132 55.7382 6.67359 56.005 7.06474C56.3652 7.32921 56.8455 7.35143 57.1967 7.64702C57.5814 7.76925 57.9549 7.93149 58.3462 8.03372C58.7508 8.08706 59.1666 8.03816 59.5646 7.98483C59.987 7.79814 60.4205 7.64924 60.8585 7.50922C61.1431 7.37366 61.6189 7.18475 61.8457 7.2692C61.4922 7.55145 60.9541 7.50922 60.6918 7.91593C60.4294 8.17373 60.5072 8.63822 60.9386 8.56044C61.4544 8.5471 62.0302 8.656 62.4771 8.32486C62.6994 8.10484 62.1503 7.6159 62.3415 7.54701C62.6305 7.7737 62.6683 8.54266 63.1885 8.22263C63.6532 8.06483 64.1601 8.18929 64.6292 8.05817C64.9939 7.81814 64.9138 7.30032 65.1028 6.94473C65.3296 6.25355 65.2295 5.43125 64.6982 4.90009C63.9289 4.12446 62.8239 3.83776 61.7834 3.64219C60.4561 3.42439 59.0977 3.36883 57.7592 3.49995C57.677 3.52217 57.5502 3.50884 57.4902 3.57329V3.57329Z" fill="#DEAC9D"/>
<path fill-rule="evenodd" clip-rule="evenodd" d="M71.7014 1.82646C72.5774 2.41763 73.7402 2.08427 74.5984 2.60876C75.092 2.97546 73.6535 3.51774 74.7896 3.42217C75.5855 3.18437 75.5611 3.71109 75.1209 4.16447C75.4744 4.73786 76.5571 4.27114 76.1592 5.32235C76.2459 5.92908 77.4709 6.3469 76.6816 7.09141C75.9902 7.16253 74.734 6.24689 74.654 7.47145C73.7224 8.1004 72.5774 7.75592 71.5525 8.00039C70.3986 8.16263 69.2758 7.70481 68.1197 7.88482C66.7835 8.07818 65.425 8.00928 64.0933 7.83593C63.931 7.14253 63.8754 6.40246 64.4646 6.05798C64.7558 5.27346 64.0333 5.22901 63.8354 5.88685C63.1395 6.4758 62.1079 6.63137 61.2519 6.35801C60.2025 6.07576 59.311 6.82694 58.3216 6.96918C57.2077 6.36023 59.0864 5.57127 58.9708 4.77786C58.8663 3.7422 56.3451 4.58006 57.25 3.34883C58.1815 3.07325 58.9486 2.45319 59.8912 2.21317C60.9762 2.19761 61.8589 1.75312 62.8994 1.57755C64.0599 1.49532 65.2183 1.48865 66.3766 1.622C67.6439 1.57977 68.909 1.7109 70.1762 1.68201C70.6854 1.72201 71.1923 1.80868 71.7014 1.82646V1.82646ZM52.5254 9.32719C51.8184 9.58054 50.5423 9.24495 50.2065 9.92946C51.0069 10.1117 52.3498 10.8873 52.9234 10.1028C52.8278 9.85613 52.8812 9.36497 52.5254 9.32719ZM50.3422 5.47792C49.1216 5.22012 50.1376 6.72249 50.8691 6.45357C51.5427 7.57146 49.6307 7.48923 48.957 7.72925C48.4457 7.76926 46.8516 8.30486 48.0166 8.63601C48.4879 8.38265 49.3817 8.15374 49.3306 7.74703C49.2527 8.37598 50.3866 8.18041 49.3995 8.57156C49.7041 9.09605 51.5272 8.79158 51.1537 7.74703C51.5516 7.39144 53.4881 7.64258 52.2008 7.03363C51.1937 7.02696 52.0007 5.77573 50.9247 5.8424C50.7112 5.74684 50.5756 5.53571 50.3422 5.47792V5.47792ZM51.296 3.8111C51.3804 4.42671 50.3155 4.90232 49.833 4.77564C50.4289 4.25781 51.3249 3.59774 50.1043 3.25549C48.8392 2.94435 52.0341 2.35985 50.8202 2.14427C49.8575 1.62866 52.4254 1.66422 51.2493 2.25317C52.2586 2.27095 53.0657 1.5331 54.0351 1.35086C54.9577 1.10417 55.9204 1.47532 56.7942 0.995271C57.7947 0.968601 58.7863 0.499667 59.7556 0.946377C60.805 0.750802 61.8655 0.641904 62.9483 0.715245C64.2934 0.788585 65.6918 0.53745 66.9969 0.930821C67.4705 1.21752 68.8667 1.46198 67.6039 1.37753C66.5567 1.35086 65.5295 1.08417 64.4757 1.11306C63.324 1.07528 62.1768 0.990827 61.0229 0.993049C60.1158 1.36864 59.0931 1.14195 58.1348 1.15084C57.6435 1.02416 56.5785 1.45309 57.6879 1.58866C59.1553 1.69534 56.563 2.17761 56.6519 1.44865C55.8471 1.17529 55.0133 2.10649 54.1774 2.27317C53.1191 2.45541 51.8584 2.85989 51.296 3.8111C51.5427 3.88666 53.2258 3.05325 52.919 3.62664C52.5165 3.72887 51.4004 4.59784 51.296 3.8111V3.8111ZM69.2402 0.755247C70.1518 0.83081 71.3746 0.495223 72.0283 1.22863C71.2501 1.73312 70.3341 1.05083 69.5715 0.80192L69.4403 0.795253L69.2402 0.755247V0.755247Z" fill="#FDF5F5"/>
<path fill-rule="evenodd" clip-rule="evenodd" d="M71.8617 5.31791C71.4348 5.25568 71.2125 5.50459 71.0279 5.59571C70.8456 5.68683 70.71 5.77573 70.5121 5.87352C70.3187 5.9713 70.1542 6.00909 69.9963 6.07354C69.8096 6.14688 69.7562 6.16243 69.7562 6.42913C69.7562 6.66248 70.0474 6.77138 70.2742 6.82694C70.4676 6.87584 70.7144 6.94695 70.8678 6.98474C71.1591 7.05808 71.2302 7.22476 71.5437 7.22476C71.795 7.22476 71.9951 7.21587 72.1396 7.14475C72.2841 7.07141 72.4642 6.98029 72.6154 6.86695C72.7977 6.73138 72.8933 6.70916 73.0133 6.46913C73.0978 6.298 73.1312 6.14021 73.1312 5.91352C73.1312 5.64905 73.0734 5.57794 72.9333 5.43792C72.8599 5.36458 72.6042 5.29346 72.4975 5.24013C72.3041 5.14234 72.1818 5.08233 72.0595 4.92232C71.9461 4.76897 71.9172 4.66673 71.7816 4.48449C71.6882 4.36004 71.4348 4.25114 71.3458 4.20669C71.1702 4.12002 70.8723 4.12891 70.67 4.12891C70.4098 4.12891 70.1564 4.0889 69.9163 4.0889C69.7851 4.0889 69.5472 3.92 69.4005 3.8111C69.2715 3.71331 69.0981 3.58885 68.9625 3.45328C68.8091 3.29994 68.8246 3.18437 68.5667 3.05769C68.3222 2.93546 68.2355 3.12214 68.0509 3.21549C67.8575 3.31105 67.7285 3.4155 67.5729 3.49329C67.4151 3.57108 67.335 3.65108 67.1772 3.69109C66.9993 3.73554 66.877 3.80665 66.6991 3.8511C66.4902 3.90222 66.2034 3.8511 65.9855 3.8511C65.8921 3.8511 65.6431 3.6133 65.5875 3.5733C65.443 3.4644 65.3652 3.40439 65.2718 3.21549C65.0961 2.86656 64.4469 2.87545 64.1601 2.85767C63.9756 2.84656 63.7866 3.03769 63.6421 3.09547C63.4309 3.18215 63.1619 3.17548 62.9284 3.17548C62.715 3.17548 62.5238 3.21771 62.3726 3.25549C62.1881 3.30216 62.1636 3.40661 61.9746 3.45328C61.799 3.49773 61.6078 3.51774 61.4988 3.5733C61.3099 3.66664 61.3254 3.78887 61.381 4.00889C61.441 4.25781 61.6745 4.40671 61.8968 4.5645C62.0569 4.68007 62.2125 4.80231 62.4526 4.80231C62.7861 4.80231 63.0729 4.87342 63.3264 4.68452C63.4909 4.56006 63.5576 4.47338 63.6043 4.2867C63.6532 4.0889 63.8266 3.98445 63.8822 3.77109C63.9267 3.59108 64.0423 3.53107 64.1601 3.41328C64.2869 3.2866 64.5981 3.3955 64.716 3.45328C64.8827 3.53774 64.9672 3.58663 65.0717 3.69109C65.2273 3.84666 65.3452 3.86888 65.5497 3.96889C65.752 4.07112 65.901 4.20447 66.0655 4.2867C66.2523 4.38004 66.4524 4.44449 66.6614 4.48449C66.897 4.53339 67.235 4.48227 67.4151 4.44671C67.6441 4.40004 67.7574 4.3267 68.0109 4.3267C68.2177 4.3267 68.4178 4.32003 68.6067 4.36671C68.8269 4.42227 69.0403 4.4845 69.2004 4.5645C69.3893 4.65785 69.4005 4.77341 69.4005 5.00232C69.4005 5.20679 69.6361 5.31569 69.7562 5.43792C69.9074 5.58683 70.2031 5.42903 70.2742 5.35791C70.3987 5.23346 70.5299 5.13567 70.63 5.00232C70.7211 4.88009 70.9768 4.92232 71.1458 4.92232C71.3948 4.92232 71.7149 5.14234 71.8617 5.31791V5.31791Z" fill="#FDDAE0"/>
<path fill-rule="evenodd" clip-rule="evenodd" d="M64.6358 8.09594C64.7603 7.89147 65.2116 7.06473 65.3495 6.78692C65.4829 6.52245 65.7296 6.36022 65.9853 6.23131C66.2766 6.08463 66.5612 5.98907 66.8591 5.91351C67.3082 5.80239 68.0597 5.27344 68.3665 5.1201C68.6488 4.98008 69.1157 5.04009 69.4781 5.04009C70.0762 5.04009 69.4537 5.29123 69.1624 5.43791C68.8601 5.58903 68.5799 5.76905 68.2887 5.91351C67.9996 6.05797 67.5772 6.18909 67.3349 6.31132C66.9947 6.48023 66.8302 6.65802 66.6212 6.86693C66.4055 7.08251 66.2566 7.35587 66.1432 7.58033C65.9631 7.94037 66.0698 8.13594 65.5095 8.13594C65.3205 8.13594 64.8492 8.18261 64.6358 8.09594V8.09594ZM59.9113 3.29548C59.5066 3.29548 59.2354 3.29548 58.9174 3.61328C58.8285 3.70218 60.2092 3.63329 60.5849 4.00888C60.7183 4.14222 60.0424 3.4266 59.9113 3.29548ZM60.745 4.28668C59.3643 4.38669 58.9552 5.59348 60.5849 6.46912C60.0958 5.52903 59.4199 5.02898 60.745 4.28668ZM62.0923 4.50671C61.0162 4.58449 60.6983 5.52458 61.97 6.20909C61.5876 5.47569 61.0585 5.08454 62.0923 4.50671ZM66.2032 2.61986C67.0392 3.22658 66.7968 4.07777 65.4028 3.93332C66.1032 3.58884 66.7368 3.57106 66.2032 2.61986ZM71.6258 2.39539C70.6609 2.30649 70.4986 3.56217 71.7415 4.74895C71.2968 3.65551 70.7676 3.01323 71.6258 2.39539Z" fill="#1A260E"/>
<path fill-rule="evenodd" clip-rule="evenodd" d="M109.26 19.5259C109.089 20.5083 110.129 21.2639 110.211 22.2462C110.612 22.7329 110.832 23.9953 109.845 23.4774C109.022 23.7464 109.791 24.9998 110.125 25.5043C110.756 26.3333 110.956 27.4378 110.798 28.4446C110.202 28.9113 109.077 28.6802 108.884 29.6447C108.72 30.4492 108.644 31.4115 109.255 32.0605C110.022 32.9028 109.213 33.8184 108.466 34.2896C107.752 34.3918 106.414 33.8895 106.525 35.1763C106.601 36.1742 106.296 36.9943 105.669 37.7188C105.462 38.6056 106.054 39.4701 106.038 40.2857C106.888 40.5057 107.857 40.5569 108.43 41.3392C109.191 42.2348 110.062 43.0527 111.165 43.4971C111.899 44.2172 113.226 43.6749 112.942 42.5948C112.97 41.737 111.817 40.7169 112.741 40.0346C113.564 39.8457 114.469 39.4479 114.184 38.4166C113.987 37.5921 113.951 36.5876 115.049 36.5276C115.914 35.7253 114.231 34.9785 114.229 34.1007C114.353 33.165 113.493 31.9205 114.273 31.2293C115.196 31.0315 115.756 30.1492 115.049 29.3647C114.476 28.649 113.771 27.8379 114.078 26.84C114.58 25.7621 113.071 25.3821 112.441 24.8376C111.576 23.9708 112.006 22.5596 111.316 21.5884C111.01 20.7283 110.089 20.4749 109.54 19.8504C109.449 19.7393 109.362 19.6282 109.26 19.5259V19.5259Z" fill="url(#paint3_radial_7_3)"/>
<path opacity="0.8" fill-rule="evenodd" clip-rule="evenodd" d="M69.6383 46.9886C70.2475 47.5975 70.6032 48.6221 70.2253 49.4422C69.4427 49.9444 69.5672 48.5221 69.2092 48.5532C68.9669 49.5999 69.1003 50.6912 69.1625 51.7513C68.898 52.5247 67.6596 51.978 68.0376 51.1845C67.9709 50.2711 68.7868 49.5644 68.6868 48.6376C68.8824 47.7975 68.082 47.5242 67.4951 48.022C66.5368 48.2198 66.957 46.793 67.7774 47.0908C68.4955 47.0886 67.8174 45.8507 68.7601 46.2352C69.1892 46.2752 69.5361 46.5685 69.6383 46.9886ZM64.7938 47.942C65.4785 48.2798 66.9103 48.2109 67.1171 48.9088C66.588 49.2044 66.4323 49.7733 66.3834 50.2822C65.9432 49.8555 65.5541 48.3532 64.8605 49.4288C64.0823 50.1933 65.1117 51.1445 65.9632 50.8623C66.6902 50.4156 66.061 51.8624 66.9081 51.4357C68.1532 51.5046 66.6813 52.2269 66.1433 52.1491C65.5697 52.7469 65.1272 53.567 64.1223 53.4892C63.2775 53.3114 62.3615 53.0669 61.5055 53.3959C60.8096 53.8937 62.1947 54.8671 62.8083 54.3715C63.4642 53.9915 64.1735 53.7315 64.856 53.4048C65.603 52.9758 66.5768 53.0247 67.3817 53.2536C68.082 53.6981 69.1003 53.7826 69.5072 54.5871C70.0363 55.4249 71.2347 54.9471 72.0439 55.2227C72.7865 55.5116 73.5002 56.1717 73.1845 57.0473C73.0756 57.9496 73.289 58.8586 73.2112 59.7676C72.9221 60.5366 72.0906 60.9944 71.8283 61.8233C71.3614 62.5012 70.5543 62.7634 69.8784 63.1635C69.7762 63.7969 69.3693 64.6814 68.7601 63.7924C68.5445 63.3768 68.4511 62.5056 67.8908 63.1813C66.9592 63.5791 66.6169 62.1123 67.6151 61.9834C68.2843 61.31 68.4289 60.2565 67.8908 59.452C67.5862 58.5386 66.7792 58.2519 66.0255 58.8719C65.065 58.5564 66.937 57.1051 65.7809 57.7385C65.0694 58.2363 64.3091 58.6319 63.5465 59.0475C63.2308 59.1386 62.4904 59.8454 62.855 59.0542C63.5976 58.7453 64.3735 58.4608 64.9894 57.9119C65.4518 57.454 65.045 57.0273 64.5559 57.4674C63.7154 57.9563 62.8595 58.4075 62.0457 58.9275C61.6656 59.172 60.8496 59.3809 61.3009 58.6564C62.0235 58.2341 62.8395 57.9252 63.5176 57.4051C64.0578 57.2762 64.1579 56.9651 63.5042 57.1162C62.8573 57.2007 64.1957 55.9761 63.1996 56.0272C62.3726 56.0583 61.8034 55.3805 61.0275 55.316C60.2293 55.4005 59.3978 55.1849 58.7953 54.6493C57.966 54.2026 58.4284 53.0914 59.2911 53.0136C60.007 52.678 60.734 52.3735 61.4032 51.9513C62.2792 51.6468 63.1663 51.1045 64.1357 51.3246C64.498 51.4312 65.2517 51.5512 64.6137 51.0801C64.2046 50.3978 63.5709 49.9222 62.9818 49.4733C62.795 48.4443 63.9822 48.0065 64.7938 47.942V47.942ZM71.7016 52.4669C72.5753 52.0046 73.3979 52.718 74.1049 53.1492C74.6341 53.3848 74.7497 55.0094 74.0583 54.1559C73.6403 53.407 72.9511 52.8025 72.1018 52.6158C71.9483 52.6647 71.8216 52.5336 71.7016 52.4669V52.4669ZM70.5899 53.0225C70.0941 53.1269 68.8402 52.8136 68.7535 53.1647C69.2381 53.3825 70.392 53.6937 70.6188 53.1936L70.5899 53.0225ZM62.1747 56.9118C61.8679 56.9006 59.8914 56.7873 61.1409 57.3874C61.5922 57.5585 62.0435 57.4074 62.1747 56.9118ZM60.2693 60.4032C59.5245 60.8455 59.3533 60.0476 59.6935 59.552C59.42 59.7698 57.9082 60.0876 58.7353 60.4699C58.8976 61.1011 60.3182 61.2655 60.2693 60.4032ZM65.5097 54.6093C65.2206 54.8716 64.8338 55.0071 64.4469 55.0049C64.249 55.016 64.0556 54.976 63.8666 54.9249C63.7043 54.9405 63.542 55.096 63.5487 55.2672C63.5443 55.6027 63.6154 55.9339 63.7021 56.2539C63.8177 56.5406 64.1445 56.6251 64.398 56.7517C64.7137 56.9229 65.0739 57.0073 65.4341 56.9918C65.6275 56.9895 65.852 57.0273 66.0054 56.8806C66.2256 56.6984 66.4279 56.4584 66.4479 56.1606C66.4746 55.8606 66.4901 55.525 66.2989 55.2694C66.2345 55.1094 65.981 55.0182 65.9899 54.8538C66.15 54.6938 66.3745 54.6182 66.5835 54.5404C66.7569 54.5049 66.8592 54.3448 66.9904 54.2426C66.9926 54.1026 66.7125 54.2048 66.6102 54.2071C66.2367 54.2871 65.852 54.3849 65.5274 54.596L65.5097 54.6093V54.6093Z" fill="#553C2C"/>
<path opacity="0.8" fill-rule="evenodd" clip-rule="evenodd" d="M65.5097 55.4827C65.0606 55.4916 64.985 55.7516 64.8738 56.1961C64.7271 56.7829 65.1273 56.8317 65.5875 56.8317C66.0344 56.8317 65.9855 56.4717 65.9855 56.0383C65.9855 55.7872 65.7698 55.6894 65.5097 55.4827Z" fill="#553C2C"/>
<path fill-rule="evenodd" clip-rule="evenodd" d="M31.6042 89.4549C31.1084 89.4549 32.5535 89.7305 33.0337 89.8505C33.5229 89.9727 33.9386 90.026 34.3833 90.2483C34.8702 90.4905 35.5283 90.6217 36.0508 90.8817C36.7422 91.2284 37.4781 91.3906 38.194 91.6773C39.0011 91.9996 39.9415 92.2329 40.7353 92.3907C41.2844 92.4996 41.8336 92.8041 42.4027 92.9463C42.8652 93.0619 43.3365 93.333 43.6722 93.5019C43.9502 93.6397 44.257 93.7464 44.546 93.8197C44.9862 93.9286 43.8879 94.0575 43.7523 94.0575C43.4344 94.0575 42.9586 93.7397 42.7985 93.5819C42.6184 93.4019 41.8714 93.3152 41.609 93.1841C41.2533 93.0063 40.6819 92.9997 40.2595 92.7885C39.8237 92.5707 39.428 92.4507 38.9877 92.2329C38.5431 92.0107 38.1051 91.9507 37.6382 91.8351C37.2047 91.7262 36.8556 91.5395 36.4465 91.4373C36.0619 91.3417 35.5972 91.1328 35.257 90.9617C34.8524 90.7617 34.51 90.7172 34.1454 90.6439C33.8386 90.5839 33.3961 90.4972 33.0337 90.4061C32.658 90.3127 32.2578 90.2327 31.9999 90.1683C31.6575 90.0816 31.3129 90.0149 30.9683 89.9305C30.497 89.8127 30.3324 89.7882 30.3324 90.3261C30.3324 90.8261 30.2057 90.8817 29.6988 90.8817C29.2163 90.8817 29.5343 90.2572 29.6187 90.0883C29.7521 89.8216 30.2279 89.546 30.5703 89.3749C30.7793 89.2704 31.4307 89.4193 31.6042 89.4549V89.4549ZM34.3032 87.7881C34.4678 87.7058 35.1815 87.9258 35.5728 88.0259C36.0352 88.1414 36.4576 88.2503 36.9245 88.3437C37.4025 88.4392 37.8917 88.4659 38.3519 88.5815C38.8054 88.6948 39.2456 88.7281 39.7037 88.8193C40.1239 88.9037 40.5596 89.1126 40.9732 89.2149C41.3356 89.306 41.7091 89.4393 42.0848 89.5327C42.5828 89.6571 42.814 89.8149 43.2765 89.9305C43.7345 90.0438 43.8857 90.1683 43.2765 90.1683C42.8452 90.1683 42.3983 89.9483 42.0048 89.8505C41.5045 89.726 41.0376 89.6482 40.5752 89.5327C40.1172 89.4193 39.8459 89.3104 39.4635 89.2149C39.1011 89.1237 38.7943 88.9682 38.512 88.8993C38.1362 88.8037 37.7627 88.8104 37.4803 88.7392C37.0757 88.6392 36.7178 88.7481 36.3687 88.6592C36.053 88.5815 35.7862 88.4148 35.4949 88.3437C34.9569 88.2081 34.7057 88.2881 34.3032 87.7881V87.7881ZM44.3881 85.8034C44.0391 85.7145 45.0707 86.0323 45.4198 86.1212C45.8133 86.219 46.0267 86.359 46.4514 86.359C46.9072 86.359 47.1095 86.4368 47.563 86.4368C47.9921 86.4368 47.005 86.6368 46.8493 86.6768C46.5314 86.7546 46.0645 86.7524 45.7377 86.8346C45.1396 86.9835 45.4398 87.0924 45.7377 87.3902C45.9889 87.6414 46.2579 87.7503 46.4514 87.9458C46.776 88.2681 46.9761 88.6437 47.1673 88.8993C47.4696 89.3015 46.9049 89.1304 46.6114 89.0571C46.1512 88.9415 45.98 88.797 45.5776 88.8993C45.1841 88.9971 45.8044 89.6793 45.8956 89.7705C46.1423 90.0172 46.5648 90.0972 46.8493 90.1683C47.1673 90.2483 47.4719 90.3927 47.6431 90.5661C47.9699 90.8928 47.2251 90.7172 46.9294 90.6439C46.5181 90.5416 46.1357 90.3483 45.8956 90.1683C45.671 89.9994 45.3019 89.9105 45.0218 89.7705C44.8261 89.6727 44.1658 89.946 43.9101 90.0105C43.5611 90.0972 44.1191 89.4038 44.1503 89.3749C44.3215 89.2037 44.8328 89.0393 45.0218 88.8993C45.3531 88.6504 45.3153 88.5237 45.4198 88.1036C45.5065 87.7547 45.213 87.4214 45.0218 87.2324C44.8061 87.0146 44.6594 86.7435 44.546 86.5168C44.4526 86.3279 44.4482 86.1034 44.3881 85.8034V85.8034ZM42.6406 91.9929C42.4361 91.5862 43.5433 92.1418 43.9902 92.2329C44.5593 92.3463 45.064 92.5374 45.6577 92.7085C45.8422 92.7619 46.0289 92.813 46.2135 92.8663C46.5381 92.9597 46.9027 93.0997 47.2451 93.1841C47.712 93.2997 47.9299 93.4086 48.2789 93.5819C48.9904 93.9375 48.1722 93.7353 47.8009 93.6597C47.3362 93.5686 46.9116 93.4353 46.4514 93.3441C46.0423 93.2619 45.6265 93.2641 45.1819 93.2641C44.7439 93.2641 44.466 93.3419 44.1503 93.2641C43.8168 93.1797 43.4344 92.9863 43.1965 92.8663C42.754 92.6463 42.6406 92.6263 42.6406 91.9929V91.9929ZM48.5969 90.4861C48.2367 90.3061 49.3861 90.6439 49.7863 90.6439C50.2621 90.6439 50.022 91.0506 49.9464 91.3595C49.8464 91.7595 50.002 92.184 50.1043 92.3907C50.2421 92.6663 50.4422 91.8729 50.58 91.5973C50.789 91.1817 50.8891 90.8928 51.1359 90.6439C51.3449 90.4372 51.5561 89.9949 51.376 90.7239C51.2848 91.0839 51.107 91.3373 50.978 91.5973C50.8291 91.8929 50.838 92.3085 50.898 92.5485C50.9336 92.693 51.5205 92.9797 51.6139 93.0263C51.7962 93.1175 51.9496 93.8153 52.0096 94.0575C52.1186 94.4931 52.023 94.7954 52.1697 95.0887C52.2453 95.2399 52.9012 95.4555 53.1213 95.5666C53.6438 95.8266 54.0817 95.9822 54.6309 96.2C55.1378 96.4022 55.6692 96.4422 56.1383 96.6778C56.6452 96.9289 57.4834 96.9334 58.0459 97.0734C58.6706 97.2312 59.2376 97.2645 59.8712 97.3912C60.3804 97.4934 61.0251 97.729 61.4587 97.9468C61.8478 98.1402 62.4525 98.2535 62.8082 98.3446C63.2551 98.4557 63.6709 98.6958 64.0799 98.9002C64.4134 99.0669 65.0071 99.1514 65.2716 99.2158C65.7319 99.3314 66.2343 99.278 66.6212 99.3758C67.0325 99.4781 67.3415 99.6159 67.6528 99.6936C68.0886 99.8025 66.7457 99.767 66.3032 99.6936C65.7496 99.6003 65.2561 99.4314 64.7158 99.2958C64.16 99.158 63.4685 98.978 62.9683 98.978C62.388 98.978 61.7166 98.678 61.1407 98.5824C60.4093 98.4602 59.7223 98.1268 58.9975 97.9468C58.326 97.7801 57.6946 97.4712 57.0121 97.4712C56.583 97.4712 56.0005 97.2379 55.6625 97.1534C55.2645 97.0534 54.7776 96.9578 54.4708 96.8356C54.0929 96.6845 53.5771 96.5867 53.2814 96.4378C52.9456 96.2711 52.6299 96.1177 52.3276 96.0422C52.0585 95.9733 51.8095 95.5599 51.6917 95.3266C51.5605 95.0621 51.4205 94.7021 51.2959 94.4554C51.1225 94.1064 51.1448 93.9064 50.898 93.6597C50.7068 93.4686 50.211 93.4486 50.0242 93.2641C49.8664 93.1041 49.2105 93.1841 48.9126 93.1841C48.7592 93.1841 48.4724 92.4618 48.4368 92.3907C48.2523 92.0196 48.1233 91.744 48.1989 91.4373C48.3234 90.9372 48.8637 91.7151 48.9126 91.9151C49.0059 92.2818 48.9348 92.673 49.3906 92.7885C49.6507 92.853 49.5484 91.9773 49.5484 91.7551C49.5484 91.1528 49.3906 91.2817 49.0726 90.9617C48.8748 90.7661 48.897 90.7883 48.5969 90.4861V90.4861ZM109.896 62.3878C109.297 61.79 109.896 64.0813 109.896 64.9281C109.896 65.7304 110.053 66.2415 110.053 67.1505C110.053 67.8572 110.211 68.5862 110.053 69.2129C109.9 69.8263 109.571 70.3508 109.42 70.9598C109.246 71.6532 109.42 72.6244 109.42 73.3422C109.42 74.169 109.582 74.9424 109.738 75.5647C109.909 76.2558 109.738 77.227 109.738 77.9449C109.738 79.2517 109.124 78.4427 108.784 78.1027C108.348 77.6671 108.208 76.4736 107.99 76.0403C107.588 75.2335 107.214 74.6846 107.036 73.9756C106.967 73.7 106.521 73.7267 106.243 73.6578C105.622 73.5045 106.752 74.8335 107.036 75.4046C107.359 76.0491 107.532 76.5536 107.83 77.1515C108.055 77.5982 108.193 78.7516 108.308 79.2139C108.482 79.9073 108.308 80.8785 108.308 81.5963C108.308 83.1698 109.424 84.63 109.738 85.8812C109.902 86.5413 109.533 86.9257 109.26 87.4702C108.915 88.157 108.588 88.497 108.308 89.0571C108.068 89.5371 107.374 89.9194 106.879 90.1683C106.305 90.455 105.94 90.875 105.449 91.1217C104.153 91.7684 104.775 89.6082 104.973 89.2149C105.356 88.4503 105.324 87.7169 105.607 87.1524C106 86.3679 105.28 85.5412 105.131 85.2478C104.76 84.5055 104.344 84.4122 103.544 84.6122C103.01 84.7455 102.632 85.5234 102.272 85.8812C101.769 86.3857 101.46 87.0658 101.32 87.628C101.129 88.3903 100.689 88.8904 100.366 89.5327C100.031 90.2061 99.5616 90.9839 99.2548 91.5973C98.9614 92.184 98.0409 92.4174 97.5095 92.5485C96.7203 92.7463 96.3267 93.0974 95.9199 93.5019C95.2974 94.1242 94.8971 94.3531 93.8566 94.6131C92.9607 94.8376 92.5649 94.951 92.1091 95.4066C91.5111 96.0044 90.604 95.6866 90.0437 95.4066C89.6368 95.2021 89.3411 94.8176 88.932 94.6131C88.394 94.3442 89.9347 93.9286 90.3616 93.5019C90.7774 93.0863 91.1931 92.793 91.4733 92.2329C91.5911 91.9951 92.785 91.5751 93.0629 91.4373C93.8366 91.0506 93.7544 90.8039 94.9683 90.8039C95.9265 90.8039 96.3845 90.6483 97.0315 90.4861C97.6385 90.3327 98.0454 89.7905 98.4611 89.3749C99.0458 88.7904 99.0147 88.0436 99.097 87.628C99.237 86.9302 98.6634 86.8924 99.7328 86.359C100.302 86.0746 100.889 85.4634 101.32 85.2478C101.856 84.9789 102.243 84.4833 102.59 84.1366C103.077 83.6499 103.472 83.4565 104.019 83.1832C104.709 82.8387 105.027 82.4431 105.767 82.0719C106.267 81.8208 106.512 81.0585 106.718 80.6429C107.059 79.9651 107.196 79.6428 107.196 78.7383V76.3581C107.196 76.1914 106.185 75.1313 106.085 74.929C105.676 74.1112 105.151 74.3645 104.655 74.6112C103.821 75.029 104.297 75.5224 103.384 74.6112C102.539 73.7645 102.977 72.8844 103.384 72.071C103.706 71.4309 103.461 70.4886 103.701 70.0086C103.913 69.5885 104.986 69.6841 105.291 69.5307C105.811 69.2707 105.291 68.3662 105.291 67.7861C105.291 67.335 105.807 68.6284 106.243 68.7373C106.576 68.8218 105.985 67.4172 107.036 67.9439C107.634 68.2417 107.712 68.5773 107.99 67.4683C108.11 66.9816 107.621 65.9948 107.514 65.5637C107.321 64.7881 107.514 63.9769 107.354 63.3413C107.072 62.2123 108.008 63.0946 108.148 63.6568C108.324 64.3569 108.535 64.9947 108.942 65.4037C109.506 65.966 108.908 63.7946 109.102 63.0234C109.291 62.2656 108.599 62.1278 109.896 62.3878V62.3878ZM104.495 76.5158C104.68 75.7869 103.25 77.5315 103.068 78.2627C102.857 79.1072 102.712 79.3006 103.068 80.0095C103.441 80.754 103.77 80.8252 104.495 80.6429C105.135 80.4829 105.393 79.645 105.607 79.2139C105.969 78.4916 105.925 77.8782 105.925 76.9915C105.925 76.218 104.884 76.3225 104.495 76.5158V76.5158ZM91.3154 81.1207C91.3154 80.1095 91.7667 82.7476 92.1091 84.4544C92.2448 85.13 91.5022 85.8234 91.3154 86.199C90.9263 86.9746 90.6418 87.2613 91.4733 87.4702C91.8579 87.5658 92.9184 86.5013 93.0629 86.359C93.4098 86.0101 93.6343 85.2145 93.8566 84.77C94.1435 84.1944 94.1746 83.5721 94.1746 82.7076C94.1746 81.8141 93.8144 81.5541 93.3786 81.1207C92.9206 80.6607 91.7334 81.1207 91.3154 81.1207V81.1207Z" fill="#5F4433"/>
<path fill-rule="evenodd" clip-rule="evenodd" d="M25.012 114.735C17.9686 109.157 11.9568 102.627 6.90991 92.9063C8.17275 92.8686 9.74685 93.4442 10.2449 94.6932C10.9141 95.8555 11.1409 97.2312 11.9123 98.3447C12.3503 99.8381 14.4691 99.7981 14.1356 98.0202C13.9778 96.2289 15.8743 97.0245 16.3612 98.0424C16.7414 99.0292 18.7157 99.3581 17.8752 97.9157C17.2216 96.6023 16.0099 95.4933 15.7853 93.9842C15.8298 93.4931 15.0139 92.9041 15.9899 92.9241C16.8881 93.8398 16.3011 95.3577 17.3906 96.28C17.9708 97.3579 19.7184 98.5802 18.5267 99.7692C19.4138 100.345 19.8518 101.503 20.5454 102.083C21.0212 101.729 21.4303 102.576 21.3814 101.523C21.1902 101.032 20.8522 99.5648 21.5348 100.747C22.104 102.007 23.4179 103.005 23.3446 104.456C24.3806 105.543 24.6341 107.032 25.33 108.266C26.7551 108.739 27.0886 110.301 28.2692 111.124C28.8295 112.193 30.3591 112.739 30.5147 113.926C29.85 114.206 28.0424 113.493 28.0913 114.128C29.2674 114.833 30.5347 115.369 31.6908 116.109C32.8581 116.793 34.1187 117.389 35.1436 118.262C33.7141 118.082 32.4357 117.28 31.055 116.878C29.741 116.16 28.2314 115.735 27.2153 114.571C26.495 114.188 25.6635 114.357 25.012 114.735V114.735Z" fill="url(#paint4_radial_7_3)"/>
<path opacity="0.8" fill-rule="evenodd" clip-rule="evenodd" d="M70.3521 85.2478C69.8407 84.9522 69.0181 84.8344 68.6068 85.2478C67.9776 85.8745 68.1443 86.2301 68.4467 86.8346C68.7758 87.4903 69.9385 86.9635 70.1942 86.8346C70.9346 86.4657 71.0213 86.3613 70.3521 85.2478V85.2478ZM63.5243 88.8993C64.2224 88.5481 62.217 89.8194 61.4589 90.0105C60.9497 90.1372 60.1227 90.8706 59.8714 91.1217C59.2267 91.764 59.6535 92.333 60.0293 92.7085C60.674 93.3508 60.534 93.3908 61.6189 93.6597C62.1503 93.7931 62.4705 94.831 62.7306 95.0888C63.0018 95.3621 63.4554 95.4066 63.8423 95.4066C64.4136 95.4066 63.1441 94.4909 62.8885 93.9775C62.5594 93.3219 62.1926 93.1219 61.7768 92.7085C61.1743 92.1063 62.2926 91.5595 62.5705 91.2795C62.9685 90.8817 63.7622 90.8817 64.1602 90.4861C64.8072 89.8372 64.5003 89.0926 63.5243 88.8993V88.8993ZM78.2937 86.6768C77.9891 87.2814 79.2031 85.4056 79.8812 85.4056C80.7549 85.4056 79.7522 86.9324 79.7233 86.9924C79.3187 87.8014 78.7762 87.4791 78.2937 86.6768ZM72.0196 82.8654C72.2864 83.0209 72.6243 83.1832 73.1312 83.1832C73.527 83.1832 73.3202 83.2032 73.1312 83.581C72.9578 83.9299 72.3642 83.6343 72.2575 83.581C72.0574 83.4788 72.0663 83.0987 72.0196 82.8654V82.8654ZM88.0607 84.5322C87.7717 84.6633 87.3915 85.1211 87.1869 85.3256C86.9335 85.579 86.9557 85.8501 86.869 86.199C86.7756 86.5724 86.6422 86.8324 86.3132 86.9146C85.873 87.0235 86.1931 86.3635 86.2331 86.199C86.311 85.8923 86.5911 85.6834 86.789 85.4856C87.0224 85.2523 87.0624 85.0389 87.5049 84.93C87.725 84.8745 87.8828 84.6744 88.0607 84.5322ZM84.0098 89.6927C84.3211 89.6149 83.2139 89.7794 83.1361 90.0883C83.0983 90.2416 84.0076 90.2483 84.1699 90.2483C84.4767 90.2483 84.5923 89.6927 84.0098 89.6927V89.6927ZM114.818 58.9742C114.818 59.1497 114.676 59.292 114.5 59.292C114.327 59.292 114.185 59.1497 114.185 58.9742C114.185 58.7986 114.327 58.6564 114.5 58.6564C114.676 58.6564 114.818 58.7986 114.818 58.9742ZM116.646 62.6256C116.646 62.8012 116.503 62.9434 116.328 62.9434C116.152 62.9434 116.01 62.8012 116.01 62.6256C116.01 62.4501 116.152 62.3078 116.328 62.3078C116.503 62.3078 116.646 62.4501 116.646 62.6256ZM114.422 63.8969C114.422 64.0702 114.28 64.2125 114.104 64.2125C113.929 64.2125 113.787 64.0702 113.787 63.8969C113.787 63.7213 113.929 63.5791 114.104 63.5791C114.28 63.5791 114.422 63.7213 114.422 63.8969ZM112.517 63.7369C112.517 63.9569 112.339 64.1347 112.119 64.1347C111.899 64.1347 111.721 63.9569 111.721 63.7369C111.721 63.5191 111.899 63.3413 112.119 63.3413C112.339 63.3413 112.517 63.5191 112.517 63.7369ZM100.845 57.943C100.845 58.1185 100.702 58.2608 100.527 58.2608C100.351 58.2608 100.209 58.1185 100.209 57.943C100.209 57.7674 100.351 57.6252 100.527 57.6252C100.702 57.6252 100.845 57.7674 100.845 57.943ZM102.194 55.8005C102.194 56.0183 102.016 56.1961 101.796 56.1961C101.578 56.1961 101.401 56.0183 101.401 55.8005C101.401 55.5805 101.578 55.4027 101.796 55.4027C102.016 55.4027 102.194 55.5805 102.194 55.8005ZM87.3448 101.598C87.4693 102.238 86.3332 103.067 86.0753 103.583C85.7262 104.279 85.6395 104.394 85.9152 105.25C86.2287 106.219 87.6649 105.565 87.8206 105.408C88.3875 104.843 87.6116 104.481 88.2986 104.139C88.9011 103.836 89.5081 103.636 90.0439 103.503C90.9176 103.285 91.807 103.507 90.5219 103.185C89.7704 102.998 89.4747 103.327 88.7744 103.503C87.9251 103.714 87.6627 104.119 87.6627 102.867C87.6627 102.254 87.6472 102.354 87.3448 101.598V101.598ZM124.189 73.3422C124.18 73.8667 124.192 74.3934 124.152 74.9179C124.074 74.589 124.105 73.7223 124.038 73.6912C123.947 74.429 124.138 75.1535 124.172 75.8758C123.803 76.5114 123.347 77.1737 123.482 77.9538C123.647 78.6427 123.591 79.4984 123.803 80.1007C124.307 79.425 124.276 78.4916 124.745 77.7871C125.212 77.007 124.283 76.3314 124.432 75.5313C124.79 75.0135 125.101 76.2203 125.343 76.4736C125.846 77.3115 126.248 75.2513 126.275 76.2514C126.195 77.007 126.402 77.8338 126.019 78.525C125.243 79.0006 125.561 79.9229 125.085 80.5518C124.658 81.3919 125.09 82.4298 124.518 83.221C124.225 83.9655 123.358 83.9232 122.778 84.2988C121.942 84.7122 121.546 85.6367 120.774 86.1212C119.898 86.379 120.276 85.0611 120.456 84.6122C120.225 84.1922 119.716 83.9477 119.436 83.5477C118.429 83.5388 118.478 84.9589 119.356 85.1878C119.905 85.7279 119.316 86.8102 118.616 86.9213C117.906 87.028 117.222 86.6946 116.506 86.7435C115.87 86.5368 115.563 85.7034 114.805 85.7368C113.72 85.4434 114.491 87.0058 113.553 87.0747C112.779 87.348 113.233 85.9568 113.506 85.6501C113.751 84.8344 114.736 85.2389 115.245 84.8144C115.541 84.0299 113.569 83.9477 114.68 83.2321C115.267 82.9676 116.023 82.8431 115.93 81.9919C116.157 81.2274 116.973 81.2763 117.597 81.4363C118.222 81.7208 118.767 80.7941 117.986 80.6096C117.531 80.3496 116.374 80.174 116.892 79.4428C117.199 78.8028 118.451 78.2116 118.604 79.2783C118.862 80.1407 119.387 78.9917 119.254 78.5627C119.529 78.296 120.392 78.5494 120.058 77.8649C119.818 77.0226 121.061 77.1048 121.072 77.8538C121.288 78.8472 121.664 77.5715 121.695 77.2048C121.624 76.5425 121.77 75.7714 122.595 75.8269C123.249 75.6002 122.746 74.6223 122.973 74.089C122.933 73.52 122.944 72.4844 123.749 73.1178C123.894 73.1955 124.036 73.28 124.189 73.3422V73.3422ZM17.5486 103.027C17.8955 103.196 18.0644 103.585 18.2601 103.899C18.4402 104.312 18.8092 104.601 18.9916 105.014C19.2628 105.452 19.6741 105.768 20.0921 106.052C20.2722 106.199 20.0187 105.628 20.0209 105.496C19.8809 105.092 19.8142 104.674 19.7942 104.247C19.6674 103.994 19.7519 103.59 20.0743 103.89C20.4745 104.063 20.6346 104.476 20.7724 104.859C21.0081 105.359 21.4327 105.736 21.7307 106.197C22.0308 106.572 22.3754 106.91 22.7 107.266C23.0291 107.559 23.4849 107.79 23.5649 108.268C23.6516 108.641 23.0113 108.866 23.3692 109.263C23.6516 109.884 24.2386 110.277 24.6032 110.841C24.7588 111.024 25.119 111.557 24.9389 111.648C24.3964 111.408 23.825 111.186 23.427 110.726C23.0958 110.39 22.7245 110.099 22.371 109.792C22.2198 109.677 21.5884 109.301 21.9063 109.739C22.1642 110.13 22.5066 110.446 22.8734 110.732C23.1269 111.017 23.516 111.188 23.685 111.537C23.4448 111.873 22.9201 111.564 22.6867 111.328C22.1842 110.819 21.4861 110.426 21.2816 109.695C21.2393 109.248 21.8263 109.163 22.0619 108.883C22.4866 108.723 22.0908 108.223 21.7485 108.439C21.4083 108.437 20.9347 108.668 20.7524 108.252C20.5056 107.848 20.2922 107.417 19.9854 107.052C19.6941 106.772 19.4118 106.479 19.2406 106.108C18.8893 105.65 18.4624 105.243 18.229 104.705C18.0422 104.296 17.7776 103.919 17.6731 103.476C17.4908 103.405 17.5686 103.203 17.5486 103.027V103.027ZM18.1045 105.645C18.4691 105.776 18.6492 106.099 18.8204 106.439C18.936 106.672 19.2228 106.921 19.3762 107.074C19.8075 107.506 19.1027 107.137 18.9782 107.074C18.7314 106.95 18.5847 106.601 18.4224 106.439C18.1823 106.199 18.1045 106.119 18.1045 105.645ZM59.2356 29.3691C59.3156 29.8491 58.0016 30.7092 57.0123 30.9559C56.0207 31.2048 57.0167 31.4737 57.7282 31.4315C58.3462 31.396 56.9789 31.7582 56.3786 31.9093C55.725 32.0716 55.3159 32.885 54.789 32.7028C53.9908 32.4227 55.267 29.1891 55.6627 28.8135C56.6254 28.3757 55.8161 29.9936 56.0607 30.4803C56.143 30.6448 57.5414 29.7402 57.6481 29.6869C58.0283 29.4958 58.7242 29.138 59.2356 29.3691V29.3691Z" fill="#3C2C22"/>
<path fill-rule="evenodd" clip-rule="evenodd" d="M18.4223 67.2305C18.8759 66.2482 19.6829 65.0881 20.9035 65.1748C21.7706 65.2526 22.1775 66.2371 22.2375 66.9972C22.1352 68.1795 21.0836 68.9929 20.132 69.5552C19.3405 70.0041 18.2622 69.4352 18.3401 68.4884C18.3067 68.0662 18.369 67.6461 18.4223 67.2305V67.2305ZM12.2282 75.5647C11.6968 75.918 11.2077 76.487 11.27 77.167C11.2455 77.8116 11.43 78.6472 12.1326 78.8561C12.9196 79.0628 13.7445 78.5405 14.1358 77.8805C14.2759 77.296 14.2158 76.6759 14.2292 76.0781C14.2403 75.3535 13.4266 74.9202 12.7907 75.1735C12.5617 75.238 12.3905 75.4002 12.2282 75.5647V75.5647ZM5.24258 50.5623C5.0536 51.3001 4.57336 51.9157 4.30434 52.6225C4.11536 53.0492 3.99531 53.5826 4.25766 54.007C4.39995 54.2315 4.62672 54.4404 4.91353 54.4137C5.2826 54.396 5.59608 54.1693 5.87844 53.9515C6.27641 53.727 6.76109 53.4937 6.87893 53.0114C7.05679 52.178 7.38807 51.3401 7.25244 50.4756C7.21687 50.0911 7.29024 49.6577 7.03901 49.3333C6.85447 49.1332 6.55655 49.1021 6.29865 49.1132C5.82064 49.1466 5.32929 49.5088 5.30261 50.0155C5.0825 50.1578 5.17588 50.3645 5.24258 50.5623V50.5623ZM8.30851 84.9278C8.99329 85.4856 9.46241 85.5568 9.55801 85.3167C9.69141 85.1767 9.9582 85.3701 9.86705 85.5412C9.75144 85.8701 9.42017 85.8968 9.09334 86.0057C8.55308 86.1857 7.99947 85.999 7.75713 85.4767C7.57705 84.8567 7.22132 83.6721 8.54418 83.3632C7.94834 83.6966 8.24848 84.6055 8.30851 84.9278V84.9278Z" fill="#A36734"/>
<path fill-rule="evenodd" clip-rule="evenodd" d="M20.6456 67.0705C20.2165 67.2705 19.9609 67.3483 20.0898 67.8639C20.2188 68.3795 20.7568 67.7528 20.8057 67.7061C20.9791 67.5306 20.7813 67.2972 20.6456 67.0705V67.0705ZM6.03631 50.8001C5.6828 51.0312 5.72282 51.4179 5.63834 51.7513C5.49605 52.3202 6.12079 51.6601 6.19416 51.5135C6.28532 51.3312 6.27198 50.8934 6.03631 50.8001ZM5.32041 50.1244C5.5961 49.8578 5.96516 49.6622 6.35869 49.7333C6.76333 49.6688 7.05681 49.9866 6.99233 50.3778C7.05903 50.8023 7.01234 51.229 6.90562 51.6401C6.84114 52.0557 6.75221 52.4758 6.5699 52.8514C6.39426 53.1181 6.29866 53.4737 5.97628 53.6048C5.66724 53.7648 5.31374 53.9404 4.95801 53.8515C5.01359 53.7115 5.47604 53.6514 5.64946 53.4603C6.00074 53.2959 6.15859 52.9358 6.29644 52.598C6.46985 52.2202 6.4743 51.8002 6.56101 51.3979C6.57213 51.0467 6.60325 50.6156 6.312 50.36C6.00296 50.2311 5.81398 50.6134 5.61611 50.7778C5.54718 50.9334 5.30707 51.5246 5.32041 51.0401C5.3004 50.7356 5.24704 50.4267 5.32041 50.1244V50.1244ZM13.8179 77.2315C13.4688 77.4449 13.2687 77.8204 12.953 78.0716C12.7018 78.1894 12.4172 78.1805 12.1459 78.1827C12.0548 78.1627 11.9036 78.1516 11.8614 78.2538C11.9214 78.3538 12.0659 78.3449 12.1571 78.4027C12.3483 78.4894 12.5617 78.6005 12.7729 78.5294C13.0175 78.4583 13.2176 78.2805 13.4644 78.216C13.6978 78.0982 13.8979 77.9005 13.9913 77.6515C14.0046 77.4893 13.8601 77.376 13.8179 77.2315V77.2315ZM13.102 76.4359C13.1931 76.2558 12.8641 76.7915 12.8641 76.9915C12.8641 77.2004 12.9686 77.2671 13.142 77.3093C13.3599 77.3648 13.3799 77.1293 13.3799 76.9537C13.3799 76.7448 13.411 76.6159 13.3399 76.4759C13.2976 76.3892 13.1664 76.4359 13.102 76.4359ZM32.0801 67.3483C31.7444 67.2505 31.362 67.3972 31.1463 67.6617C31.0551 67.8706 31.0685 68.1262 31.1352 68.3395C31.2463 68.5751 31.3842 68.8085 31.6154 68.9418C31.94 69.1818 32.3447 69.3485 32.7537 69.2952C32.965 69.3574 33.2406 69.0996 32.9405 69.0018C32.7404 68.9707 32.5536 68.9018 32.3758 68.7996C32.1201 68.7329 31.9111 68.5284 31.8333 68.2751C31.7577 68.0217 31.8511 67.7506 32.0312 67.5661C32.0667 67.4995 32.0823 67.4239 32.0801 67.3483V67.3483ZM32.398 67.7061C32.3024 67.8306 32.2001 68.0195 32.2001 68.2617C32.2001 68.4062 32.4514 68.4729 32.5559 68.4995C32.8694 68.5773 32.7448 68.0595 32.7159 67.9439C32.667 67.7528 32.607 67.6639 32.398 67.7061ZM29.4988 54.7671C29.2876 54.7427 29.0897 54.8627 28.8963 54.9271C28.5161 55.1605 28.4717 55.8405 28.9052 56.045C29.1809 56.1739 29.5944 56.205 29.779 55.9139C29.9679 55.6205 29.9301 55.2272 29.7723 54.9316C29.7011 54.8471 29.5989 54.8049 29.4988 54.7671ZM29.1431 52.5447C29.0897 52.658 29.0631 52.898 29.0631 53.1403C29.0631 53.2981 29.3254 53.3781 29.4588 53.3781C29.6611 53.3781 29.6989 53.2025 29.6989 52.9825C29.6989 52.8136 29.5811 52.6536 29.4988 52.5447C29.4077 52.4247 29.2743 52.4936 29.1431 52.5447ZM33.3852 94.6576C33.0694 94.4532 32.5959 94.5909 32.3402 94.8221C32.069 95.2955 32.4758 96.0111 33.0383 95.9644C33.3852 96.0422 33.7742 95.8488 33.7698 95.4555C33.8476 95.1621 33.7898 94.6421 33.3852 94.6576ZM31.5331 92.3574C31.8844 92.5196 32.1001 92.9552 32.0734 93.3308C31.9067 93.8553 31.1908 94.1887 30.715 93.8487C30.3926 93.5842 30.1236 93.1775 30.1903 92.7397C30.2614 92.5885 30.4259 92.0463 30.5949 92.3085C30.5994 92.5819 30.486 92.8486 30.5504 93.1241C30.5616 93.502 31.0285 93.5686 31.3019 93.4286C31.6599 93.2464 31.6354 92.7797 31.5487 92.4463L31.5398 92.4019L31.5331 92.3574V92.3574Z" fill="#6E4F35"/>
<path fill-rule="evenodd" clip-rule="evenodd" d="M64.0001 98.5824C63.9689 95.6733 57.9594 92.7285 61.0987 90.7017C62.2926 88.0725 65.5341 87.8125 66.8081 90.4839C69.0425 90.415 67.1905 86.3302 70.4476 87.5258C71.7172 86.648 73.6092 85.1612 72.4464 87.917C70.879 89.8172 75.1877 88.7904 75.977 89.7594C76.953 88.7459 79.9878 83.4165 79.9345 87.1724C77.9313 89.1349 76.8597 93.582 81.1617 92.6752C83.4006 94.6287 88.1651 90.7439 88.4186 95.2377C87.2314 98.0068 82.7959 97.3512 81.6798 99.347C84.6523 100.325 85.1259 103.314 86.2687 105.976C89.1679 105.705 91.5935 103.216 93.3966 100.972C95.8889 97.9224 99.3595 100.449 98.8726 103.807C95.2931 107.421 102.039 109.186 104.04 106.294C106.278 104.447 108.986 103.092 110.414 100.434C112.515 96.8867 114.494 92.8219 118.153 90.6439C121.432 89.3882 121.693 91.944 120.212 94.5732C117.677 99.0647 114.645 104.005 107.83 110.59C104.317 112.017 101.409 114.155 98.1433 116.044C94.357 117.582 90.5663 119.28 87.3803 121.876C84.1788 124.563 80.0323 126.076 75.8392 126.158C74.2606 126.581 69.6606 126.879 73.5247 125.463C75.8703 124.403 84.121 126.221 80.9616 120.633C77.889 118.5 74.6275 121.133 71.8661 123.425C67.9976 125.734 65.9299 120.231 69.316 119.107C66.9304 118.08 68.5445 116.08 68.7446 114.493C67.106 113.715 61.5411 112.213 62.9151 115.217C59.2511 115.571 58.0594 119.462 54.0352 118.551C50.7203 116.829 47.1207 122.251 51.614 122.869C54.1397 122.667 56.7832 125.014 58.1972 125.878C54.6333 125.507 51.5251 124.638 48.9661 124.229C47.5676 125.083 45.7734 124.032 47.7989 123.278C46.3092 122.66 43.9414 123.512 44.0504 121.198C40.1374 119.251 46.307 120.031 47.1296 118.907C48.457 115.933 52.9525 117.289 55.4248 115.251C56.7943 115.015 62.1658 113.419 58.0149 113.104C56.0984 113.888 54.8334 115.084 52.9169 113.808C51.3406 115.373 48.3347 113.962 47.1986 116.484C45.2109 116.284 43.21 116.489 41.4891 117.044C41.8893 115.217 42.852 113.346 40.2152 114.911C40.1996 113.082 44.7996 112.41 40.8155 112.075C39.3592 112.097 38.3676 110.235 37.5917 109.541C38.8634 106.894 32.6737 110.244 31.2864 107.948C28.8452 107.499 27.8025 103.394 31.3842 104.639C35.255 105.741 38.1742 102.301 41.9271 104.139C44.5506 105.232 47.2831 110.753 50.4713 107.419C52.1966 105.699 54.2642 110.559 56.8232 108.508C60.0315 108.746 56.4253 103.527 60.7874 103.956C59.3133 102.132 60.1293 101.329 62.2926 101.36C63.571 101.003 63.8489 99.7314 64.0001 98.5824V98.5824ZM65.1651 102.347C64.5514 102.787 62.466 106.274 61.0097 105.379C59.8069 105.168 60.365 106.874 60.634 107.008C61.0987 107.241 63.3464 107.51 63.9289 107.51C64.5959 107.51 64.9427 107.285 65.5008 107.285C66.1278 107.285 64.627 107.797 64.378 108.297C64.1379 108.779 65.0761 108.981 65.2762 109.081C65.5742 109.23 65.901 109.75 66.0633 109.979C66.6391 110.795 67.793 109.457 67.8597 109.195C67.9909 108.67 68.1132 108.274 68.1954 107.848C68.5956 105.81 67.7041 103.498 67.6352 103.245C67.2283 101.758 65.7743 101.992 65.1651 102.347Z" fill="url(#paint5_radial_7_3)"/>
<path fill-rule="evenodd" clip-rule="evenodd" d="M94.9683 12.0652C94.7771 12.4919 95.3218 12.7031 95.5064 13.0031C95.7153 13.2964 96.1022 13.7365 95.7954 14.0854C95.4485 14.421 94.9016 14.1921 94.5303 14.481C94.2546 14.6966 93.8411 15.1144 93.5454 14.6855C93.4142 14.4343 93.0407 13.9565 92.7939 14.3499C92.7294 14.8033 92.8184 15.2677 92.914 15.71C93.1496 16.2434 93.7788 16.4167 94.3102 16.4723C95.4641 16.5968 96.6602 16.3634 97.7786 16.7612C98.1965 16.9012 98.5723 17.1457 98.9769 17.3191C99.4661 17.4124 99.5172 16.8123 99.5817 16.4745C99.7973 15.3389 99.3127 14.0854 98.3388 13.4409C97.8453 13.0831 97.4317 12.6097 96.8692 12.3541C96.3223 12.0785 95.6909 11.9563 95.0839 12.063C95.0461 12.0652 95.0061 12.0652 94.9683 12.0652V12.0652ZM104.337 17.6213C103.61 17.4391 105.396 18.6792 105.925 19.2081C106.352 19.6348 105.876 17.8902 105.449 17.4635C105.184 17.199 104.704 17.548 104.337 17.6213V17.6213Z" fill="url(#paint6_radial_7_3)"/>
<path fill-rule="evenodd" clip-rule="evenodd" d="M128 63.9746C128 80.9418 121.257 97.214 109.255 109.212C97.2525 121.209 80.9739 127.949 64 127.949C47.0262 127.949 30.7475 121.209 18.7452 109.212C6.74284 97.214 0 80.9418 0 63.9746C0 47.0075 6.74284 30.7353 18.7452 18.7377C30.7475 6.74017 47.0262 0 64 0C80.9739 0 97.2525 6.74017 109.255 18.7377C121.257 30.7353 128 47.0075 128 63.9746V63.9746Z" fill="url(#paint7_radial_7_3)"/>
<defs>
<linearGradient id="paint0_linear_7_3" x1="79.8811" y1="120.096" x2="58.9332" y2="20.4005" gradientUnits="userSpaceOnUse">
<stop stop-color="#9F673A"/>
<stop offset="1" stop-color="#9F673A" stop-opacity="0.36735"/>
</linearGradient>
<radialGradient id="paint1_radial_7_3" cx="0" cy="0" r="1" gradientUnits="userSpaceOnUse" gradientTransform="translate(118.822 80.1458) rotate(9.29947) scale(14.3605 18.117)">
<stop stop-color="#5F4433"/>
<stop offset="1" stop-color="#5F4433" stop-opacity="0"/>
</radialGradient>
<radialGradient id="paint2_radial_7_3" cx="0" cy="0" r="1" gradientUnits="userSpaceOnUse" gradientTransform="translate(80.7684 35.1208) rotate(-28.5273) scale(53.4754 45.2397)">
<stop stop-color="#4C362C"/>
<stop offset="1" stop-color="#93654C" stop-opacity="0.5102"/>
</radialGradient>
<radialGradient id="paint3_radial_7_3" cx="0" cy="0" r="1" gradientUnits="userSpaceOnUse" gradientTransform="translate(110.496 35.7564) rotate(-20.6974) scale(17.6999 20.8613)">
<stop stop-color="#4C362C"/>
<stop offset="1" stop-color="#93654C" stop-opacity="0.5102"/>
</radialGradient>
<radialGradient id="paint4_radial_7_3" cx="0" cy="0" r="1" gradientUnits="userSpaceOnUse" gradientTransform="translate(19.9625 106.973) rotate(-18.3504) scale(17.163 22.3518)">
<stop stop-color="#5F4433"/>
<stop offset="1" stop-color="#5F4433" stop-opacity="0"/>
</radialGradient>
<radialGradient id="paint5_radial_7_3" cx="0" cy="0" r="1" gradientUnits="userSpaceOnUse" gradientTransform="translate(75.0726 109.194) scale(57.2517 28.2195)">
<stop stop-color="#5F4433"/>
<stop offset="1" stop-color="#5F4433" stop-opacity="0"/>
</radialGradient>
<radialGradient id="paint6_radial_7_3" cx="0" cy="0" r="1" gradientUnits="userSpaceOnUse" gradientTransform="translate(98.1095 15.6495) rotate(-16.0201) scale(11.2804 13.9452)">
<stop stop-color="#4C362C"/>
<stop offset="1" stop-color="#93654C" stop-opacity="0.5102"/>
</radialGradient>
<radialGradient id="paint7_radial_7_3" cx="0" cy="0" r="1" gradientUnits="userSpaceOnUse" gradientTransform="translate(64 63.9718) scale(64 63.9746)">
<stop stop-color="#F2F2F2" stop-opacity="0.15306"/>
<stop offset="0.5" stop-color="#7F7F7F" stop-opacity="0"/>
<stop offset="0.75" stop-color="#3F3F3F" stop-opacity="0.23469"/>
<stop offset="1" stop-opacity="0.42857"/>
</radialGradient>
</defs>
</svg>
